<?xml version="1.0" standalone="no"?>
<!DOCTYPE svg PUBLIC "-//W3C//DTD SVG 20010904//EN"
 "http://www.w3.org/TR/2001/REC-SVG-20010904/DTD/svg10.dtd">
<svg version="1.0" xmlns="http://www.w3.org/2000/svg"
 width="1275.000000pt" height="2101.000000pt" viewBox="0 0 1275.000000 2101.000000"
 preserveAspectRatio="xMidYMid meet">

<g transform="translate(0.000000,2101.000000) scale(0.100000,-0.100000)"
fill="#000000" stroke="none">
<path d="M6704 18277 c14 -10 16 -25 14 -77 -3 -57 -5 -65 -23 -65 -15 0 -29
18 -54 73 -19 39 -38 72 -42 72 -4 0 -12 -13 -17 -30 -8 -20 -8 -29 0 -27 5 1
14 -8 19 -20 7 -20 5 -23 -16 -23 -19 0 -23 4 -19 18 3 9 -2 4 -12 -13 -9 -16
-23 -38 -32 -47 -14 -17 -13 -18 19 -17 19 0 28 3 22 6 -7 2 -13 13 -13 24 0
28 65 27 73 -1 3 -10 0 -21 -7 -24 -6 -2 23 -5 64 -5 43 0 69 3 62 8 -9 5 -12
26 -10 65 l3 56 53 -66 52 -67 0 74 c0 45 5 80 12 87 9 9 5 12 -17 12 -20 0
-26 -3 -17 -9 8 -5 12 -22 10 -46 l-3 -39 -35 47 c-30 39 -40 46 -69 47 -31 0
-33 -2 -17 -13z"/>
<path d="M6883 18279 c13 -8 17 -24 17 -72 0 -36 -5 -68 -12 -75 -9 -9 4 -12
60 -12 66 0 72 2 72 21 0 19 -1 19 -16 5 -8 -9 -26 -16 -40 -16 -21 0 -24 5
-24 35 0 40 16 46 30 13 7 -18 9 -13 9 27 0 40 -2 45 -9 28 -14 -34 -30 -28
-30 12 0 30 3 35 25 35 13 0 29 -8 34 -17 9 -16 10 -16 11 5 0 21 -4 22 -72
22 -55 -1 -69 -3 -55 -11z"/>
<path d="M7080 18248 c16 -22 30 -47 30 -53 0 -7 -16 -27 -35 -44 l-36 -31 38
1 c21 0 32 3 26 6 -18 7 -16 28 2 43 13 11 18 10 30 -6 8 -10 12 -25 10 -31
-3 -9 8 -13 35 -13 l40 0 -35 46 c-19 25 -35 49 -35 54 0 5 14 22 31 39 l31
31 -34 0 c-23 0 -29 -3 -19 -9 12 -7 11 -12 -1 -30 l-15 -21 -19 21 c-16 17
-16 22 -4 29 11 7 2 10 -28 10 l-42 0 30 -42z"/>
<path d="M7255 18265 c-77 -76 38 -193 120 -122 21 17 27 32 27 62 0 76 -93
115 -147 60z m95 -4 c5 -11 10 -36 10 -56 0 -67 -38 -98 -71 -58 -17 20 -17
97 1 118 17 21 47 19 60 -4z"/>
<path d="M4776 16994 c-10 -25 -1 -27 19 -4 15 17 16 20 3 20 -9 0 -19 -7 -22
-16z"/>
<path d="M4580 16971 c-46 -45 -38 -100 17 -129 30 -16 65 -15 89 3 18 14 17
14 -8 4 -59 -25 -101 30 -77 101 16 44 55 52 86 16 l23 -27 0 28 c0 27 -3 28
-50 31 -45 2 -54 -1 -80 -27z"/>
<path d="M5483 16989 c13 -8 17 -24 17 -74 0 -50 -4 -66 -17 -74 -15 -9 -12
-10 17 -11 22 0 30 3 22 9 -9 5 -12 26 -10 65 l3 56 53 -66 52 -67 0 74 c0 45
5 80 12 87 9 9 5 12 -17 12 -20 0 -26 -3 -17 -9 8 -5 12 -22 10 -46 l-3 -39
-35 47 c-30 40 -40 46 -70 46 -29 0 -32 -1 -17 -10z"/>
<path d="M5910 16980 c0 -11 7 -20 15 -20 8 0 15 9 15 20 0 11 -7 20 -15 20
-8 0 -15 -9 -15 -20z"/>
<path d="M6365 16915 l0 -85 30 1 c17 0 24 3 18 6 -9 3 -13 30 -13 84 0 69 -2
79 -17 79 -16 0 -18 -11 -18 -85z"/>
<path d="M6558 16988 c7 -7 12 -20 12 -31 0 -14 -5 -17 -21 -12 -28 9 -59 -21
-59 -56 0 -31 23 -59 48 -59 12 0 13 3 4 12 -14 14 -16 98 -2 98 17 0 32 -41
26 -71 -6 -30 4 -42 26 -34 10 4 12 25 10 85 -3 79 -4 80 -30 80 -20 0 -23 -3
-14 -12z"/>
<path d="M7235 16915 l0 -84 80 2 80 3 -4 39 c-4 53 -17 75 -44 75 -30 0 -64
-24 -49 -34 15 -9 34 2 27 15 -4 5 1 9 9 9 27 0 17 -34 -14 -52 -17 -9 -30
-24 -30 -33 0 -8 -4 -15 -10 -15 -6 0 -10 33 -10 80 0 70 -2 80 -17 80 -16 0
-18 -11 -18 -85z m115 -45 c0 -11 -4 -20 -10 -20 -5 0 -10 9 -10 20 0 11 5 20
10 20 6 0 10 -9 10 -20z"/>
<path d="M7540 16980 c0 -11 7 -20 15 -20 8 0 15 9 15 20 0 11 -7 20 -15 20
-8 0 -15 -9 -15 -20z"/>
<path d="M8208 16988 c7 -7 12 -20 12 -31 0 -14 -5 -17 -21 -12 -28 9 -59 -21
-59 -56 0 -31 23 -59 48 -59 12 0 13 3 4 12 -14 14 -16 98 -2 98 17 0 32 -41
26 -71 -6 -30 4 -42 26 -34 10 4 12 25 10 85 -3 79 -4 80 -30 80 -20 0 -23 -3
-14 -12z"/>
<path d="M8395 16915 l0 -85 30 1 c17 0 24 3 18 6 -9 3 -13 30 -13 84 0 69 -2
79 -17 79 -16 0 -18 -11 -18 -85z"/>
<path d="M8520 16983 c0 -13 3 -14 12 -5 7 7 18 12 25 12 18 0 18 -146 1 -153
-7 -3 10 -6 37 -6 39 0 46 2 33 10 -15 8 -18 24 -18 79 0 61 2 70 18 70 10 0
23 -5 30 -12 9 -9 12 -8 12 5 0 14 -11 17 -75 17 -64 0 -75 -3 -75 -17z"/>
<path d="M8928 16918 l3 -83 35 -2 c61 -5 98 62 56 100 -24 22 -50 24 -33 3
17 -21 10 -91 -9 -91 -15 0 -17 12 -19 123 -1 23 -6 32 -18 32 -16 0 -18 -9
-15 -82z"/>
<path d="M9200 16980 c0 -11 7 -20 15 -20 8 0 15 9 15 20 0 11 -7 20 -15 20
-8 0 -15 -9 -15 -20z"/>
<path d="M6862 16960 c-8 -20 -8 -29 0 -27 5 1 14 -8 19 -20 7 -20 5 -23 -16
-23 -19 0 -23 4 -19 18 3 9 -2 4 -12 -13 -9 -16 -23 -38 -32 -47 -14 -17 -13
-18 19 -17 19 0 28 3 22 6 -7 2 -13 13 -13 24 0 28 65 27 73 -1 3 -10 0 -21
-7 -24 -6 -2 9 -5 33 -5 41 -1 43 0 28 17 -8 9 -28 45 -43 80 -14 34 -30 62
-34 62 -5 0 -13 -13 -18 -30z"/>
<path d="M4745 16937 c-12 -10 -14 -16 -7 -21 15 -9 34 2 27 15 -4 5 1 9 9 9
27 0 17 -34 -15 -52 -48 -28 -36 -53 26 -53 l50 0 -4 40 c-1 22 -7 48 -12 57
-11 21 -48 23 -74 5z m45 -67 c0 -11 -4 -20 -10 -20 -5 0 -10 9 -10 20 0 11 5
20 10 20 6 0 10 -9 10 -20z"/>
<path d="M4855 16889 c0 -56 1 -59 25 -59 23 0 25 4 25 45 0 25 5 45 10 45 6
0 10 -20 10 -45 l0 -45 55 0 55 0 -3 50 c-4 57 -23 80 -52 62 -11 -6 -22 -8
-25 -3 -3 5 -26 9 -52 9 l-48 1 0 -60z m141 17 c8 -35 1 -60 -19 -64 -14 -3
-17 4 -17 36 0 55 24 74 36 28z"/>
<path d="M5075 16937 c-12 -10 -14 -16 -7 -21 15 -9 34 2 27 15 -4 5 1 9 9 9
27 0 17 -34 -15 -52 -48 -28 -36 -53 26 -53 l50 0 -4 40 c-1 22 -7 48 -12 57
-11 21 -48 23 -74 5z m45 -67 c0 -11 -4 -20 -10 -20 -5 0 -10 9 -10 20 0 11 5
20 10 20 6 0 10 -9 10 -20z"/>
<path d="M5195 16890 c0 -57 1 -60 25 -60 24 0 25 3 23 52 -1 29 -2 56 -2 61
-1 4 -11 7 -23 7 -21 0 -23 -4 -23 -60z"/>
<path d="M5256 16941 c-8 -13 15 -26 44 -26 15 0 24 5 23 13 -2 6 4 12 12 12
26 0 16 -34 -16 -52 -48 -28 -36 -53 26 -53 l50 0 -4 40 c-6 70 -32 91 -81 65
-13 -7 -21 -7 -25 0 -8 12 -22 13 -29 1z m94 -71 c0 -11 -4 -20 -10 -20 -5 0
-10 9 -10 20 0 11 5 20 10 20 6 0 10 -9 10 -20z"/>
<path d="M5675 16937 c-12 -10 -14 -16 -7 -21 15 -9 34 2 27 15 -4 5 1 9 9 9
27 0 17 -34 -15 -52 -48 -28 -36 -53 26 -53 l50 0 -4 40 c-1 22 -7 48 -12 57
-11 21 -48 23 -74 5z m45 -67 c0 -11 -4 -20 -10 -20 -5 0 -10 9 -10 20 0 11 5
20 10 20 6 0 10 -9 10 -20z"/>
<path d="M5807 16932 c-22 -24 -22 -65 1 -85 23 -21 46 -22 61 -3 10 12 8 13
-8 9 -16 -4 -23 1 -31 22 -11 29 -5 65 11 65 5 0 9 -7 9 -15 0 -8 7 -15 16
-15 9 0 14 7 12 18 -5 24 -50 27 -71 4z"/>
<path d="M5905 16890 l0 -60 30 1 c17 0 24 3 18 6 -8 3 -13 25 -13 59 0 45 -3
54 -17 54 -15 0 -18 -10 -18 -60z"/>
<path d="M5987 16932 c-35 -38 -9 -102 40 -102 28 0 46 25 46 62 0 52 -53 76
-86 40z m48 -42 c0 -24 -5 -45 -11 -47 -14 -5 -23 37 -16 72 7 41 27 23 27
-25z"/>
<path d="M6095 16890 l0 -60 55 0 55 0 -4 48 c-4 60 -12 69 -64 70 l-42 1 0
-59z m73 -17 c-5 -44 -28 -40 -28 5 0 21 3 42 7 46 11 11 25 -22 21 -51z"/>
<path d="M6245 16937 c-12 -10 -14 -16 -7 -21 15 -9 34 2 27 15 -4 5 1 9 9 9
27 0 17 -34 -15 -52 -48 -28 -36 -53 26 -53 l50 0 -4 40 c-1 22 -7 48 -12 57
-11 21 -48 23 -74 5z m45 -67 c0 -11 -4 -20 -10 -20 -5 0 -10 9 -10 20 0 11 5
20 10 20 6 0 10 -9 10 -20z"/>
<path d="M6647 16932 c-10 -10 -17 -30 -17 -45 0 -47 52 -75 79 -43 10 12 9
13 -8 9 -13 -3 -23 2 -30 16 -11 19 -9 21 19 21 22 0 30 5 30 18 0 41 -45 55
-73 24z m43 -12 c0 -11 -7 -20 -15 -20 -17 0 -18 2 -9 24 9 23 24 20 24 -4z"/>
<path d="M6978 16943 c8 -3 12 -28 12 -74 l0 -69 -1225 0 c-810 0 -1225 -3
-1225 -10 0 -7 815 -10 2425 -10 1610 0 2425 3 2425 10 0 6 -33 10 -80 10
l-80 0 0 75 0 75 -27 -1 c-16 0 -22 -3 -15 -6 8 -3 12 -28 12 -75 0 -60 -2
-69 -14 -59 -10 8 -16 9 -21 1 -4 -7 -340 -10 -1076 -10 -1020 0 -1069 1
-1069 18 0 13 8 18 27 17 19 0 31 8 42 28 14 24 14 30 1 55 -14 24 -22 27 -70
29 -30 1 -49 -1 -42 -4z m77 -54 c0 -32 -4 -44 -15 -44 -16 0 -26 54 -16 82
12 30 31 6 31 -38z"/>
<path d="M7137 16932 c-10 -10 -17 -30 -17 -45 0 -47 52 -75 79 -43 10 12 9
13 -8 9 -13 -3 -23 2 -30 16 -11 19 -9 21 19 21 22 0 30 5 30 18 0 41 -45 55
-73 24z m43 -12 c0 -11 -7 -20 -15 -20 -17 0 -18 2 -9 24 9 23 24 20 24 -4z"/>
<path d="M7437 16932 c-22 -24 -22 -65 1 -85 23 -21 46 -22 61 -3 10 12 8 13
-8 9 -16 -4 -23 1 -31 22 -11 29 -5 65 11 65 5 0 9 -7 9 -15 0 -8 7 -15 16
-15 9 0 14 7 12 18 -5 24 -50 27 -71 4z"/>
<path d="M7535 16890 l0 -60 30 1 c17 0 24 3 18 6 -8 3 -13 25 -13 59 0 45 -3
54 -17 54 -15 0 -18 -10 -18 -60z"/>
<path d="M7617 16932 c-35 -38 -9 -102 40 -102 28 0 46 25 46 62 0 52 -53 76
-86 40z m48 -42 c0 -24 -5 -45 -11 -47 -14 -5 -23 37 -16 72 7 41 27 23 27
-25z"/>
<path d="M7725 16890 l0 -60 55 0 55 0 -4 48 c-4 60 -12 69 -64 70 l-42 1 0
-59z m73 -17 c-5 -44 -28 -40 -28 5 0 21 3 42 7 46 11 11 25 -22 21 -51z"/>
<path d="M7877 16932 c-10 -10 -17 -30 -17 -45 0 -47 52 -75 79 -43 10 12 9
13 -8 9 -13 -3 -23 2 -30 16 -11 19 -9 21 19 21 22 0 30 5 30 18 0 41 -45 55
-73 24z m43 -12 c0 -11 -7 -20 -15 -20 -17 0 -18 2 -9 24 9 23 24 20 24 -4z"/>
<path d="M7992 16938 c-18 -18 -14 -35 13 -56 27 -22 32 -37 13 -46 -7 -3 -4
-5 6 -3 10 1 24 10 30 19 8 14 5 23 -19 48 -29 30 -29 54 0 30 12 -10 15 -10
15 2 0 17 -42 22 -58 6z"/>
<path d="M8297 16932 c-10 -10 -17 -30 -17 -45 0 -47 52 -75 79 -43 10 12 9
13 -8 9 -13 -3 -23 2 -30 16 -11 19 -9 21 19 21 22 0 30 5 30 18 0 41 -45 55
-73 24z m43 -12 c0 -11 -7 -20 -15 -20 -17 0 -18 2 -9 24 9 23 24 20 24 -4z"/>
<path d="M8695 16890 c0 -57 1 -60 25 -60 24 0 25 3 23 52 -1 29 -2 56 -2 61
-1 4 -11 7 -23 7 -21 0 -23 -4 -23 -60z"/>
<path d="M8756 16941 c-8 -13 15 -26 44 -26 15 0 24 5 23 13 -2 6 4 12 12 12
26 0 16 -34 -16 -52 -48 -28 -36 -53 26 -53 l50 0 -4 40 c-6 70 -32 91 -81 65
-13 -7 -21 -7 -25 0 -8 12 -22 13 -29 1z m94 -71 c0 -11 -4 -20 -10 -20 -5 0
-10 9 -10 20 0 11 5 20 10 20 6 0 10 -9 10 -20z"/>
<path d="M9075 16937 c-12 -10 -14 -16 -7 -21 15 -9 34 2 27 15 -4 5 1 9 9 9
27 0 17 -34 -15 -52 -48 -28 -36 -53 26 -53 l50 0 -4 40 c-1 22 -7 48 -12 57
-11 21 -48 23 -74 5z m45 -67 c0 -11 -4 -20 -10 -20 -5 0 -10 9 -10 20 0 11 5
20 10 20 6 0 10 -9 10 -20z"/>
<path d="M9287 16932 c-35 -38 -9 -102 40 -102 28 0 46 25 46 62 0 52 -53 76
-86 40z m48 -42 c0 -24 -5 -45 -11 -47 -14 -5 -23 37 -16 72 7 41 27 23 27
-25z"/>
<path d="M7980 16849 c0 -11 4 -18 10 -14 5 3 7 12 3 20 -7 21 -13 19 -13 -6z"/>
<path d="M5447 16559 c-5 -20 -5 -20 14 -3 23 20 23 24 5 24 -7 0 -16 -9 -19
-21z"/>
<path d="M6395 16571 c-3 -5 -1 -12 5 -16 14 -9 13 -128 -2 -143 -9 -9 -7 -12
13 -12 24 0 24 0 21 90 -3 68 -7 90 -17 90 -8 0 -16 -4 -20 -9z"/>
<path d="M8045 16571 c-3 -5 -1 -12 5 -16 14 -9 13 -128 -2 -143 -9 -9 -7 -12
13 -12 24 0 24 0 21 90 -3 68 -7 90 -17 90 -8 0 -16 -4 -20 -9z"/>
<path d="M8225 16570 c-3 -5 -1 -10 4 -10 6 0 11 -11 11 -24 0 -19 -4 -23 -20
-19 -28 7 -60 -24 -60 -58 0 -30 23 -59 46 -59 10 0 9 5 -6 20 -24 24 -26 63
-5 80 25 21 47 -6 43 -54 -2 -27 1 -41 10 -41 6 0 12 3 12 8 0 4 0 43 0 87 0
63 -3 80 -14 80 -8 0 -18 -4 -21 -10z"/>
<path d="M9075 16570 c-3 -5 -1 -10 4 -10 6 0 11 -11 11 -24 0 -19 -4 -23 -20
-19 -28 7 -60 -24 -60 -58 0 -30 23 -59 46 -59 10 0 9 5 -6 20 -24 24 -26 63
-5 80 25 21 47 -6 43 -54 -2 -27 1 -41 10 -41 6 0 12 3 12 8 0 4 0 43 0 87 0
63 -3 80 -14 80 -8 0 -18 -4 -21 -10z"/>
<path d="M4632 16558 c-22 -22 -12 -47 28 -75 30 -19 40 -32 38 -47 -4 -30
-42 -33 -62 -4 l-16 22 0 -21 c0 -17 8 -24 37 -29 31 -6 39 -3 55 15 22 29 12
51 -37 80 -24 14 -35 27 -33 38 4 24 32 28 52 8 13 -14 16 -14 16 -2 0 26 -56
37 -78 15z"/>
<path d="M5699 16541 c-69 -69 -4 -162 96 -137 21 5 25 12 25 40 0 19 6 37 13
39 6 3 -6 5 -28 5 -22 0 -34 -2 -27 -5 6 -2 12 -20 12 -39 0 -30 -3 -34 -25
-34 -37 0 -65 33 -65 78 0 65 57 95 100 52 15 -15 20 -16 20 -5 0 8 -9 19 -19
25 -35 18 -71 11 -102 -19z"/>
<path d="M6713 16559 c13 -8 17 -24 17 -74 0 -50 -4 -66 -17 -74 -15 -8 -11
-10 17 -10 19 0 29 3 23 6 -9 3 -13 26 -12 66 l0 62 32 -69 31 -70 32 70 33
69 0 -62 c1 -40 -3 -63 -11 -66 -7 -3 5 -6 27 -6 32 0 36 2 23 10 -14 8 -18
24 -18 74 0 50 4 66 18 74 14 9 13 10 -11 11 -19 0 -30 -7 -36 -22 -5 -13 -18
-43 -29 -68 l-20 -45 -31 68 c-28 59 -34 67 -59 67 -23 -1 -24 -2 -9 -11z"/>
<path d="M7339 16541 c-69 -69 -4 -162 96 -137 21 5 25 12 25 40 0 19 6 37 13
39 6 3 -6 5 -28 5 -22 0 -34 -2 -27 -5 6 -2 12 -20 12 -39 0 -30 -3 -34 -25
-34 -37 0 -65 33 -65 78 0 65 57 95 100 52 15 -15 20 -16 20 -5 0 8 -9 19 -19
25 -35 18 -71 11 -102 -19z"/>
<path d="M8468 16558 c16 -16 16 -130 0 -147 -11 -10 0 -11 51 -9 47 2 66 7
69 18 4 12 2 13 -9 3 -7 -7 -28 -13 -46 -13 -31 0 -33 2 -33 35 0 32 3 35 29
35 16 0 32 -6 34 -12 3 -7 5 1 5 17 0 17 -2 24 -5 18 -2 -7 -18 -13 -34 -13
-27 0 -29 3 -29 36 0 36 0 36 40 32 22 -2 40 0 40 4 0 5 -28 8 -62 8 -48 0
-59 -3 -50 -12z"/>
<path d="M5181 16553 c0 -6 -8 -19 -17 -27 -8 -9 -11 -16 -5 -16 6 0 11 -21
11 -50 0 -53 19 -75 43 -51 9 9 8 11 -5 6 -16 -6 -18 -1 -18 43 0 40 4 52 18
55 15 4 15 5 0 6 -9 0 -19 11 -21 24 -2 12 -5 17 -6 10z"/>
<path d="M8761 16553 c0 -6 -8 -19 -17 -27 -8 -9 -11 -16 -5 -16 5 0 11 -24
13 -52 l3 -53 55 -2 c30 -1 49 1 43 3 -8 4 -13 26 -13 60 0 45 -3 54 -17 52
-38 -3 -52 3 -56 25 -2 12 -5 17 -6 10z m43 -49 c11 -4 16 -19 16 -49 0 -39
-2 -42 -25 -42 -23 0 -25 3 -25 48 0 49 4 54 34 43z"/>
<path d="M4767 16502 c-10 -10 -17 -30 -17 -45 0 -47 52 -75 79 -43 10 12 8
13 -8 9 -23 -6 -51 12 -51 33 0 9 12 14 35 14 36 0 46 15 23 38 -17 17 -42 15
-61 -6z m51 -9 c2 -8 -6 -13 -22 -13 -25 0 -33 10 -19 24 10 10 36 3 41 -11z"/>
<path d="M4877 16502 c-31 -34 -12 -102 28 -102 13 0 45 26 45 36 0 2 -9 -1
-19 -8 -26 -16 -51 5 -51 44 0 35 25 48 45 22 7 -11 17 -16 21 -12 10 11 -15
38 -36 38 -9 0 -24 -8 -33 -18z"/>
<path d="M4970 16510 c-10 -6 -11 -10 -2 -10 8 0 12 -16 12 -44 0 -26 -5 -46
-12 -49 -7 -3 3 -5 22 -5 19 0 29 2 23 5 -8 3 -13 25 -13 59 0 55 -4 61 -30
44z"/>
<path d="M5020 16510 c0 -5 5 -10 10 -10 6 0 10 5 10 10 0 6 -4 10 -10 10 -5
0 -10 -4 -10 -10z"/>
<path d="M5067 16502 c-10 -10 -17 -30 -17 -45 0 -47 52 -75 79 -43 10 12 8
13 -8 9 -23 -6 -51 12 -51 33 0 9 12 14 35 14 36 0 46 15 23 38 -17 17 -42 15
-61 -6z m51 -9 c2 -8 -6 -13 -22 -13 -25 0 -33 10 -19 24 10 10 36 3 41 -11z"/>
<path d="M5252 16507 c-7 -8 -9 -17 -5 -20 3 -4 11 1 18 10 7 9 17 13 23 9 20
-12 14 -25 -19 -41 -35 -19 -38 -57 -4 -63 16 -3 18 -1 8 9 -19 19 -16 37 8
49 19 11 20 9 17 -22 -2 -23 1 -34 12 -36 13 -2 14 7 10 55 -5 53 -7 58 -31
61 -14 2 -31 -3 -37 -11z"/>
<path d="M5350 16510 c-10 -6 -11 -10 -2 -10 8 0 12 -16 12 -44 0 -26 -5 -46
-12 -49 -7 -3 3 -5 22 -5 19 0 29 2 23 5 -8 3 -13 25 -13 59 0 55 -4 61 -30
44z"/>
<path d="M5400 16510 c0 -5 5 -10 10 -10 6 0 10 5 10 10 0 6 -4 10 -10 10 -5
0 -10 -4 -10 -10z"/>
<path d="M5435 16511 c-3 -5 -1 -12 5 -16 14 -9 13 -68 -2 -83 -9 -9 -7 -12
13 -12 23 0 24 2 21 60 -3 42 -8 60 -17 60 -8 0 -16 -4 -20 -9z"/>
<path d="M5502 16507 c-7 -8 -9 -17 -5 -20 3 -4 11 1 18 10 7 9 17 13 23 9 20
-12 14 -25 -19 -41 -35 -19 -38 -57 -4 -63 16 -3 18 -1 8 9 -19 19 -16 37 8
49 19 11 20 9 17 -22 -2 -23 1 -34 12 -36 13 -2 14 7 10 55 -5 53 -7 58 -31
61 -14 2 -31 -3 -37 -11z"/>
<path d="M5867 16502 c-10 -10 -17 -30 -17 -45 0 -47 52 -75 79 -43 10 12 8
13 -8 9 -23 -6 -51 12 -51 33 0 9 12 14 35 14 36 0 46 15 23 38 -17 17 -42 15
-61 -6z m51 -9 c2 -8 -6 -13 -22 -13 -25 0 -33 10 -19 24 10 10 36 3 41 -11z"/>
<path d="M5960 16510 c-10 -6 -11 -10 -2 -10 8 0 12 -16 12 -44 0 -26 -5 -46
-12 -49 -7 -3 3 -5 22 -5 19 0 29 2 23 5 -8 3 -13 25 -13 59 0 55 -4 61 -30
44z"/>
<path d="M6024 16504 c19 -18 21 -75 4 -92 -9 -9 -7 -12 13 -12 23 0 24 3 20
48 -3 50 -15 72 -38 72 -12 0 -12 -3 1 -16z"/>
<path d="M6097 16502 c-10 -10 -17 -30 -17 -45 0 -47 52 -75 79 -43 10 12 8
13 -8 9 -23 -6 -51 12 -51 33 0 9 12 14 35 14 36 0 46 15 23 38 -17 17 -42 15
-61 -6z m51 -9 c2 -8 -6 -13 -22 -13 -25 0 -33 10 -19 24 10 10 36 3 41 -11z"/>
<path d="M6190 16510 c-10 -6 -11 -10 -2 -10 8 0 12 -16 12 -44 0 -26 -5 -46
-12 -49 -7 -3 3 -5 22 -5 19 0 29 2 23 5 -8 3 -13 25 -13 59 0 55 -4 61 -30
44z"/>
<path d="M6240 16510 c0 -5 5 -10 10 -10 6 0 10 5 10 10 0 6 -4 10 -10 10 -5
0 -10 -4 -10 -10z"/>
<path d="M6282 16507 c-7 -8 -9 -17 -5 -20 3 -4 11 1 18 10 7 9 17 13 23 9 20
-12 14 -25 -19 -41 -35 -19 -38 -57 -4 -63 16 -3 18 -1 8 9 -19 19 -16 37 8
49 19 11 20 9 17 -22 -2 -23 1 -34 12 -36 13 -2 14 7 10 55 -5 53 -7 58 -31
61 -14 2 -31 -3 -37 -11z"/>
<path d="M6947 16502 c-10 -10 -17 -30 -17 -45 0 -47 52 -75 79 -43 10 12 8
13 -8 9 -23 -6 -51 12 -51 33 0 9 12 14 35 14 36 0 46 15 23 38 -17 17 -42 15
-61 -6z m51 -9 c2 -8 -6 -13 -22 -13 -25 0 -33 10 -19 24 10 10 36 3 41 -11z"/>
<path d="M7051 16506 c-15 -18 -5 -41 25 -54 28 -13 31 -30 8 -39 -11 -4 -22
1 -30 12 -14 18 -14 18 -14 -1 0 -23 44 -31 66 -13 22 18 16 39 -16 57 -31 18
-40 42 -15 42 7 0 19 -8 24 -17 10 -17 10 -16 11 2 0 25 -42 32 -59 11z"/>
<path d="M7152 16507 c-7 -8 -9 -17 -5 -20 3 -4 11 1 18 10 7 9 17 13 23 9 20
-12 14 -25 -19 -41 -35 -19 -38 -57 -4 -63 16 -3 18 -1 8 9 -19 19 -16 37 8
49 19 11 20 9 17 -22 -2 -23 1 -34 12 -36 13 -2 14 7 10 55 -5 53 -7 58 -31
61 -14 2 -31 -3 -37 -11z"/>
<path d="M7507 16502 c-10 -10 -17 -30 -17 -45 0 -47 52 -75 79 -43 10 12 8
13 -8 9 -23 -6 -51 12 -51 33 0 9 12 14 35 14 36 0 46 15 23 38 -17 17 -42 15
-61 -6z m51 -9 c2 -8 -6 -13 -22 -13 -25 0 -33 10 -19 24 10 10 36 3 41 -11z"/>
<path d="M7610 16510 c-10 -6 -11 -10 -2 -10 8 0 12 -16 12 -44 0 -26 -5 -46
-12 -49 -7 -3 3 -5 22 -5 19 0 29 2 23 5 -8 3 -13 25 -13 59 0 55 -4 61 -30
44z"/>
<path d="M7674 16504 c19 -18 21 -75 4 -92 -9 -9 -7 -12 13 -12 23 0 24 3 20
48 -3 50 -15 72 -38 72 -12 0 -12 -3 1 -16z"/>
<path d="M7747 16502 c-10 -10 -17 -30 -17 -45 0 -47 52 -75 79 -43 10 12 8
13 -8 9 -23 -6 -51 12 -51 33 0 9 12 14 35 14 36 0 46 15 23 38 -17 17 -42 15
-61 -6z m51 -9 c2 -8 -6 -13 -22 -13 -25 0 -33 10 -19 24 10 10 36 3 41 -11z"/>
<path d="M7840 16510 c-10 -6 -11 -10 -2 -10 8 0 12 -16 12 -44 0 -26 -5 -46
-12 -49 -7 -3 3 -5 22 -5 19 0 29 2 23 5 -8 3 -13 25 -13 59 0 55 -4 61 -30
44z"/>
<path d="M7890 16510 c0 -5 5 -10 10 -10 6 0 10 5 10 10 0 6 -4 10 -10 10 -5
0 -10 -4 -10 -10z"/>
<path d="M7932 16507 c-7 -8 -9 -17 -5 -20 3 -4 11 1 18 10 7 9 17 13 23 9 20
-12 14 -25 -19 -41 -35 -19 -38 -57 -4 -63 16 -3 18 -1 8 9 -19 19 -16 37 8
49 19 11 20 9 17 -22 -2 -23 1 -34 12 -36 13 -2 14 7 10 55 -5 53 -7 58 -31
61 -14 2 -31 -3 -37 -11z"/>
<path d="M8307 16502 c-10 -10 -17 -30 -17 -45 0 -47 52 -75 79 -43 10 12 8
13 -8 9 -23 -6 -51 12 -51 33 0 9 12 14 35 14 36 0 46 15 23 38 -17 17 -42 15
-61 -6z m51 -9 c2 -8 -6 -13 -22 -13 -25 0 -33 10 -19 24 10 10 36 3 41 -11z"/>
<path d="M8620 16510 c-10 -6 -11 -10 -2 -10 8 0 12 -16 12 -44 0 -26 -5 -46
-12 -49 -7 -3 3 -5 22 -5 19 0 29 2 23 5 -8 3 -13 25 -13 59 0 55 -4 61 -30
44z"/>
<path d="M8684 16504 c19 -18 21 -75 4 -92 -9 -9 -7 -12 13 -12 23 0 24 3 20
48 -3 50 -15 72 -38 72 -12 0 -12 -3 1 -16z"/>
<path d="M8860 16510 c0 -5 5 -10 10 -10 6 0 10 5 10 10 0 6 -4 10 -10 10 -5
0 -10 -4 -10 -10z"/>
<path d="M8912 16507 c-7 -8 -9 -17 -5 -20 3 -4 11 1 18 10 7 9 17 13 23 9 20
-12 14 -25 -19 -41 -35 -19 -38 -57 -4 -63 16 -3 18 -1 8 9 -19 19 -16 37 8
49 19 11 20 9 17 -22 -2 -23 1 -34 12 -36 13 -2 14 7 10 55 -5 53 -7 58 -31
61 -14 2 -31 -3 -37 -11z"/>
<path d="M9142 16507 c-7 -8 -9 -17 -5 -20 3 -4 11 1 18 10 7 9 17 13 23 9 20
-12 14 -25 -19 -41 -35 -19 -38 -57 -4 -63 16 -3 18 -1 8 9 -19 19 -16 37 8
49 19 11 20 9 17 -22 -2 -23 1 -34 12 -36 13 -2 14 7 10 55 -5 53 -7 58 -31
61 -14 2 -31 -3 -37 -11z"/>
<path d="M9251 16506 c-15 -18 -5 -41 25 -54 28 -13 31 -30 8 -39 -11 -4 -22
1 -30 12 -14 18 -14 18 -14 -1 0 -23 44 -31 66 -13 22 18 16 39 -16 57 -31 18
-40 42 -15 42 7 0 19 -8 24 -17 10 -17 10 -16 11 2 0 25 -42 32 -59 11z"/>
<path d="M6537 16453 c18 -2 50 -2 70 0 21 2 7 4 -32 4 -38 0 -55 -2 -38 -4z"/>
<path d="M7567 16127 c-52 -52 -45 -159 14 -195 19 -12 19 -11 -2 18 -46 61
-20 207 31 180 28 -15 29 -133 3 -149 -14 -8 -8 -10 27 -10 35 0 41 2 28 10
-19 11 -26 69 -8 69 5 0 22 -18 36 -40 19 -28 34 -40 51 -40 23 0 22 1 -12 31
-38 33 -44 53 -20 63 18 7 20 50 3 64 -7 5 -40 12 -73 14 -48 2 -64 -1 -78
-15z m132 -14 c12 -23 -4 -53 -29 -53 -16 0 -20 7 -20 35 0 28 4 35 20 35 10
0 23 -8 29 -17z"/>
<path d="M2493 16129 c13 -8 17 -24 17 -74 0 -50 -4 -66 -17 -74 -14 -8 -8
-10 27 -10 35 0 41 2 28 10 -11 6 -18 22 -18 39 0 25 4 30 24 30 13 0 27 -6
29 -12 3 -7 5 1 5 17 0 17 -2 24 -5 18 -2 -7 -16 -13 -29 -13 -21 0 -24 5 -24
35 0 32 2 35 30 35 17 0 33 -7 39 -17 9 -16 10 -16 11 5 0 21 -4 22 -67 22
-51 -1 -64 -3 -50 -11z"/>
<path d="M2655 16115 c-52 -51 -16 -145 55 -145 44 0 80 39 80 85 0 46 -36 85
-80 85 -19 0 -40 -9 -55 -25z m87 -2 c23 -21 24 -89 1 -115 -36 -40 -83 -8
-83 58 0 66 41 94 82 57z"/>
<path d="M2813 16129 c13 -8 17 -24 17 -74 0 -50 -4 -66 -17 -74 -14 -8 -8
-10 27 -10 35 0 41 2 28 10 -19 11 -26 69 -8 69 5 0 22 -18 36 -40 26 -39 28
-40 83 -39 31 0 50 3 44 6 -9 3 -13 26 -12 66 l0 62 32 -69 31 -70 32 70 33
69 0 -62 c1 -40 -3 -63 -11 -66 -7 -3 5 -6 26 -6 35 -1 38 1 22 12 -26 19 -20
140 8 145 27 5 36 -15 36 -80 0 -62 13 -78 62 -78 43 0 53 16 58 87 5 65 6 68
30 68 24 0 25 -3 28 -65 3 -53 0 -67 -15 -78 -15 -11 -8 -13 51 -10 51 2 71 7
74 18 4 13 3 13 -11 2 -9 -7 -28 -12 -44 -10 -27 3 -28 5 -31 68 -2 52 0 67
14 77 15 11 6 13 -57 12 -41 0 -68 -3 -61 -6 16 -6 16 -125 0 -141 -7 -7 -21
-12 -33 -12 -12 0 -26 5 -33 12 -16 16 -16 135 1 141 6 3 -16 6 -51 6 -56 1
-63 -1 -71 -21 -5 -13 -18 -43 -29 -68 l-20 -45 -31 68 c-27 58 -35 67 -58 67
-24 0 -25 -1 -9 -13 14 -10 16 -25 14 -77 -4 -77 -22 -89 -69 -44 -32 31 -37
49 -14 58 18 7 20 47 3 64 -7 7 -37 12 -67 12 -43 -1 -52 -3 -38 -11z m86 -16
c12 -23 -4 -53 -29 -53 -16 0 -20 7 -20 35 0 28 4 35 20 35 10 0 23 -8 29 -17z"/>
<path d="M3714 16127 c14 -10 16 -25 14 -77 -3 -61 -4 -65 -27 -65 -21 0 -29
11 -55 73 -16 39 -33 72 -36 72 -7 0 -30 -45 -30 -57 0 -4 6 1 13 12 13 17 15
16 25 -13 10 -30 10 -32 -14 -32 -13 0 -24 6 -24 13 -1 6 -10 -6 -22 -28 -11
-22 -26 -43 -32 -47 -6 -4 0 -8 14 -8 22 0 26 5 25 28 0 24 4 27 36 30 31 3
37 -1 42 -20 4 -13 1 -26 -6 -30 -7 -4 24 -8 68 -8 59 1 75 3 63 11 -19 11
-26 69 -8 69 5 0 22 -18 36 -40 19 -28 34 -40 51 -40 23 0 22 1 -12 31 -38 33
-44 53 -20 63 18 7 20 47 3 64 -7 7 -37 12 -67 12 -47 0 -52 -2 -37 -13z m85
-14 c12 -23 -4 -53 -29 -53 -16 0 -20 7 -20 35 0 28 4 35 20 35 10 0 23 -8 29
-17z"/>
<path d="M3888 16133 c8 -3 12 -29 12 -78 0 -49 -4 -75 -12 -78 -7 -3 5 -6 27
-6 32 0 36 2 23 10 -14 8 -18 24 -18 74 0 50 4 66 18 74 13 8 9 10 -23 10 -22
0 -34 -3 -27 -6z"/>
<path d="M3985 16115 c-52 -51 -16 -145 55 -145 44 0 80 39 80 85 0 46 -36 85
-80 85 -19 0 -40 -9 -55 -25z m87 -2 c23 -21 24 -89 1 -115 -36 -40 -83 -8
-83 58 0 66 41 94 82 57z"/>
<path d="M4213 16129 c13 -8 17 -24 17 -74 0 -50 -4 -66 -17 -74 -14 -8 -8
-10 27 -10 35 0 41 2 28 10 -10 5 -18 21 -18 34 0 20 5 25 24 25 29 0 56 24
56 49 0 32 -33 51 -86 51 -38 -1 -45 -3 -31 -11z m77 -13 c18 -23 8 -61 -17
-64 -21 -3 -23 1 -23 37 0 43 17 54 40 27z"/>
<path d="M4524 16127 c14 -10 16 -25 14 -77 -3 -61 -4 -65 -27 -65 -21 0 -29
11 -55 73 -16 39 -33 72 -36 72 -7 0 -30 -45 -30 -57 0 -4 6 1 13 12 13 17 15
16 25 -13 10 -30 10 -32 -14 -32 -13 0 -24 6 -24 13 -1 6 -10 -6 -22 -28 -11
-22 -26 -43 -32 -47 -6 -4 0 -8 14 -8 22 0 26 5 25 28 0 24 4 27 36 30 31 3
37 -1 42 -20 4 -13 1 -26 -6 -30 -7 -4 24 -8 68 -8 59 1 75 3 63 11 -19 11
-26 69 -8 69 5 0 22 -18 36 -40 25 -37 30 -40 73 -40 44 0 47 1 46 28 0 24 4
27 36 30 31 3 37 -1 42 -20 4 -13 1 -26 -6 -30 -7 -4 6 -8 28 -8 29 1 36 3 24
10 -8 5 -28 41 -44 79 -15 39 -31 71 -35 71 -7 0 -30 -45 -30 -57 0 -4 6 1 13
12 13 17 15 16 25 -13 10 -30 9 -32 -13 -32 -13 0 -25 5 -27 11 -2 6 -12 -7
-22 -30 -22 -49 -42 -52 -79 -13 -31 32 -34 47 -12 56 18 7 20 47 3 64 -7 7
-37 12 -67 12 -47 0 -52 -2 -37 -13z m85 -14 c12 -23 -4 -53 -29 -53 -16 0
-20 7 -20 35 0 28 4 35 20 35 10 0 23 -8 29 -17z"/>
<path d="M4938 16133 c8 -3 12 -29 12 -78 0 -49 -4 -75 -12 -78 -7 -3 5 -6 26
-6 35 -1 38 1 22 12 -14 10 -16 25 -14 77 3 62 4 65 28 65 24 0 25 -3 28 -69
2 -49 -1 -72 -10 -77 -8 -6 -3 -9 17 -9 20 0 26 3 17 9 -9 5 -12 26 -10 65 l3
56 53 -66 52 -67 0 76 c0 62 3 78 18 86 14 9 11 10 -18 11 -22 0 -30 -3 -22
-9 9 -5 12 -25 10 -62 l-3 -54 -45 62 -45 62 -60 0 c-33 0 -54 -3 -47 -6z"/>
<path d="M5219 16111 c-69 -69 -4 -162 96 -137 21 5 25 12 25 40 0 19 6 37 13
39 6 3 -6 5 -28 5 -22 0 -34 -2 -27 -5 6 -2 12 -20 12 -39 0 -30 -3 -34 -25
-34 -37 0 -65 33 -65 78 0 65 57 95 100 52 15 -15 20 -16 20 -5 0 8 -9 19 -19
25 -35 18 -71 11 -102 -19z"/>
<path d="M5373 16129 c13 -8 17 -24 17 -74 0 -50 -4 -66 -17 -74 -14 -8 -8
-10 27 -10 35 0 41 2 28 10 -19 11 -26 69 -8 69 5 0 22 -18 36 -40 19 -28 34
-40 51 -40 23 0 22 1 -12 31 -38 33 -44 53 -20 63 18 7 20 47 3 64 -7 7 -37
12 -67 12 -43 -1 -52 -3 -38 -11z m86 -16 c12 -23 -4 -53 -29 -53 -16 0 -20 7
-20 35 0 28 4 35 20 35 10 0 23 -8 29 -17z"/>
<path d="M5548 16128 c16 -16 16 -130 0 -147 -11 -10 0 -11 51 -9 47 2 66 7
69 18 4 12 2 13 -9 3 -7 -7 -28 -13 -46 -13 -31 0 -33 2 -33 35 0 32 3 35 29
35 16 0 32 -6 34 -12 3 -7 5 1 5 17 0 17 -2 24 -5 18 -2 -7 -18 -13 -34 -13
-27 0 -29 3 -29 36 0 36 0 36 40 32 22 -2 40 0 40 4 0 5 -28 8 -62 8 -48 0
-59 -3 -50 -12z"/>
<path d="M5712 16128 c-22 -22 -12 -47 28 -75 30 -19 40 -32 38 -47 -4 -30
-42 -33 -62 -4 l-16 22 0 -21 c0 -17 8 -24 37 -29 31 -6 39 -3 55 15 22 29 12
51 -37 80 -24 14 -35 27 -33 38 4 24 32 28 52 8 13 -14 16 -14 16 -2 0 26 -56
37 -78 15z"/>
<path d="M5855 16115 c-52 -51 -16 -145 55 -145 44 0 80 39 80 85 0 46 -36 85
-80 85 -19 0 -40 -9 -55 -25z m87 -2 c23 -21 24 -89 1 -115 -36 -40 -83 -8
-83 58 0 66 41 94 82 57z"/>
<path d="M6083 16129 c13 -8 17 -24 17 -74 0 -50 -4 -66 -17 -75 -14 -8 -2
-10 51 -7 57 3 72 7 87 26 27 33 24 86 -6 116 -20 21 -33 25 -87 25 -48 -1
-59 -3 -45 -11z m107 -19 c43 -43 13 -130 -45 -130 -24 0 -25 2 -25 75 0 73 1
75 25 75 14 0 34 -9 45 -20z"/>
<path d="M6268 16128 c16 -16 16 -130 0 -147 -11 -10 0 -11 51 -9 47 2 66 7
69 18 4 12 2 13 -9 3 -7 -7 -28 -13 -46 -13 -31 0 -33 2 -33 35 0 32 3 35 29
35 16 0 32 -6 34 -12 3 -7 5 1 5 17 0 17 -2 24 -5 18 -2 -7 -18 -13 -34 -13
-27 0 -29 3 -29 36 0 36 0 36 40 32 22 -2 40 0 40 4 0 5 -28 8 -62 8 -48 0
-59 -3 -50 -12z"/>
<path d="M6507 16114 c-71 -71 21 -191 99 -128 18 15 18 15 -3 5 -54 -27 -93
1 -93 66 0 66 61 99 94 51 l16 -22 0 24 c0 22 -5 25 -43 28 -36 2 -48 -2 -70
-24z"/>
<path d="M6824 16124 c11 -10 16 -34 16 -74 0 -64 13 -80 64 -80 41 0 56 25
56 90 0 46 4 61 18 69 14 8 10 10 -18 10 -19 0 -29 -3 -22 -6 16 -6 16 -125 0
-141 -7 -7 -21 -12 -33 -12 -12 0 -26 5 -33 12 -16 16 -16 135 1 141 6 3 -5 6
-26 6 -35 1 -37 0 -23 -15z"/>
<path d="M7022 16128 c-22 -22 -12 -47 28 -75 30 -19 40 -32 38 -47 -4 -30
-42 -33 -62 -4 l-16 22 0 -21 c0 -17 8 -24 37 -29 31 -6 39 -3 55 15 22 29 12
51 -37 80 -24 14 -35 27 -33 38 4 24 32 28 52 8 13 -14 16 -14 16 -2 0 26 -56
37 -78 15z"/>
<path d="M7342 16128 c-22 -22 -12 -47 28 -75 30 -19 40 -32 38 -47 -4 -30
-42 -33 -62 -4 l-16 22 0 -21 c0 -17 8 -24 37 -29 31 -6 39 -3 55 15 22 29 12
51 -37 80 -24 14 -35 27 -33 38 4 24 32 28 52 8 13 -14 16 -14 16 -2 0 26 -56
37 -78 15z"/>
<path d="M7788 16128 c16 -16 16 -130 0 -147 -11 -10 0 -11 51 -9 47 2 66 7
69 18 4 12 2 13 -9 3 -7 -7 -28 -13 -46 -13 -31 0 -33 2 -33 35 0 32 3 35 29
35 16 0 32 -6 34 -12 3 -7 5 1 5 17 0 17 -2 24 -5 18 -2 -7 -18 -13 -34 -13
-27 0 -29 3 -29 36 0 36 0 36 40 32 22 -2 40 0 40 4 0 5 -28 8 -62 8 -48 0
-59 -3 -50 -12z"/>
<path d="M7957 16114 c-71 -71 21 -191 99 -128 18 15 18 15 -3 5 -54 -27 -93
1 -93 66 0 66 61 99 94 51 l16 -22 0 24 c0 22 -5 25 -43 28 -36 2 -48 -2 -70
-24z"/>
<path d="M8104 16124 c11 -10 16 -34 16 -74 0 -64 13 -80 62 -80 43 0 53 16
58 87 5 65 6 68 30 68 24 0 25 -3 28 -65 2 -52 0 -67 -14 -77 -15 -11 -12 -13
27 -13 35 1 40 3 27 11 -19 11 -26 69 -8 69 5 0 22 -18 36 -40 19 -28 34 -40
51 -40 23 0 22 1 -12 31 -38 33 -44 53 -20 63 18 7 20 47 3 64 -8 8 -43 12
-97 11 -48 0 -80 -3 -73 -6 16 -6 16 -125 0 -141 -7 -7 -21 -12 -33 -12 -12 0
-26 5 -33 12 -16 16 -16 135 1 141 6 3 -5 6 -26 6 -35 1 -37 0 -23 -15z m265
-11 c12 -23 -4 -53 -29 -53 -16 0 -20 7 -20 35 0 28 4 35 20 35 10 0 23 -8 29
-17z"/>
<path d="M8462 16128 c-22 -22 -12 -47 28 -75 30 -19 40 -32 38 -47 -4 -30
-42 -33 -62 -4 l-16 22 0 -21 c0 -17 8 -24 37 -29 31 -6 39 -3 55 15 22 29 12
51 -37 80 -24 14 -35 27 -33 38 4 24 32 28 52 8 13 -14 16 -14 16 -2 0 26 -56
37 -78 15z"/>
<path d="M8605 16115 c-52 -51 -16 -145 55 -145 44 0 80 39 80 85 0 46 -36 85
-80 85 -19 0 -40 -9 -55 -25z m87 -2 c23 -21 24 -89 1 -115 -36 -40 -83 -8
-83 58 0 66 41 94 82 57z"/>
<path d="M8833 16129 c13 -8 17 -24 17 -74 0 -50 -4 -66 -17 -75 -14 -8 -2
-10 51 -7 57 3 72 7 87 26 27 33 24 86 -6 116 -20 21 -33 25 -87 25 -48 -1
-59 -3 -45 -11z m107 -19 c43 -43 13 -130 -45 -130 -24 0 -25 2 -25 75 0 73 1
75 25 75 14 0 34 -9 45 -20z"/>
<path d="M9018 16133 c8 -3 12 -29 12 -78 0 -49 -4 -75 -12 -78 -7 -3 23 -6
67 -6 59 0 75 2 63 10 -19 11 -26 69 -8 69 5 0 22 -18 36 -40 19 -28 34 -40
51 -40 23 0 22 1 -12 31 -38 33 -44 53 -20 63 22 8 19 53 -4 66 -11 5 -57 10
-103 9 -46 0 -77 -3 -70 -6z m87 -78 c0 -68 -1 -70 -25 -70 -23 0 -25 4 -28
59 -4 73 2 88 30 84 21 -3 23 -8 23 -73z m74 58 c12 -23 -4 -53 -29 -53 -16 0
-20 7 -20 35 0 28 4 35 20 35 10 0 23 -8 29 -17z"/>
<path d="M9268 16128 c16 -16 16 -130 0 -147 -11 -10 0 -11 51 -9 47 2 66 7
69 18 4 12 2 13 -9 3 -7 -7 -28 -13 -46 -13 -31 0 -33 2 -33 35 0 32 3 35 29
35 16 0 32 -6 34 -12 3 -7 5 1 5 17 0 17 -2 24 -5 18 -2 -7 -18 -13 -34 -13
-27 0 -29 3 -29 36 0 36 0 36 40 32 22 -2 40 0 40 4 0 5 -28 8 -62 8 -48 0
-59 -3 -50 -12z"/>
<path d="M9437 16114 c-71 -71 21 -191 99 -128 18 15 18 15 -3 5 -54 -27 -93
1 -93 66 0 66 61 99 94 51 l16 -22 0 24 c0 22 -5 25 -43 28 -36 2 -48 -2 -70
-24z"/>
<path d="M9581 16123 c0 -11 3 -13 6 -5 2 6 13 12 24 12 17 0 19 -8 19 -74 0
-50 -4 -76 -12 -79 -7 -3 5 -5 27 -5 22 0 34 2 28 5 -9 3 -13 29 -13 79 0 65
2 74 18 74 10 0 24 -6 31 -12 11 -11 13 -10 9 2 -3 11 -23 16 -71 18 -59 3
-67 1 -66 -15z"/>
<path d="M9755 16115 c-52 -51 -16 -145 55 -145 44 0 80 39 80 85 0 46 -36 85
-80 85 -19 0 -40 -9 -55 -25z m87 -2 c23 -21 24 -89 1 -115 -36 -40 -83 -8
-83 58 0 66 41 94 82 57z"/>
<path d="M10247 16114 c-71 -71 21 -191 99 -128 18 15 18 15 -3 5 -54 -27 -93
1 -93 66 0 66 61 99 94 51 l16 -22 0 24 c0 22 -5 25 -43 28 -36 2 -48 -2 -70
-24z"/>
<path d="M10564 16127 c14 -10 16 -25 14 -77 -3 -61 -4 -65 -27 -65 -21 0 -29
11 -55 73 -16 39 -33 72 -36 72 -7 0 -30 -45 -30 -57 0 -4 6 1 13 12 13 17 15
16 25 -13 10 -30 10 -32 -14 -32 -13 0 -24 6 -24 13 -1 6 -10 -6 -22 -28 -11
-22 -26 -43 -32 -47 -6 -4 0 -8 14 -8 22 0 26 5 25 28 0 24 4 27 36 30 31 3
37 -1 42 -20 4 -13 1 -26 -6 -30 -7 -4 20 -7 58 -7 39 0 64 3 58 6 -9 3 -13
26 -12 66 l0 62 32 -69 31 -70 32 70 33 69 0 -62 c1 -40 -3 -63 -11 -66 -7 -3
14 -6 47 -6 60 -1 61 -1 60 27 0 24 4 27 36 30 31 3 37 -1 42 -20 4 -13 1 -26
-6 -30 -7 -4 24 -8 68 -8 59 1 75 3 63 11 -19 11 -26 69 -8 69 5 0 22 -18 36
-40 25 -37 30 -40 73 -40 44 0 47 1 46 28 0 24 4 27 36 30 31 3 37 -1 42 -20
4 -13 1 -26 -6 -30 -7 -4 6 -8 28 -8 29 1 36 3 24 10 -8 5 -28 41 -44 79 -15
39 -31 71 -35 71 -7 0 -30 -45 -30 -57 0 -4 6 1 13 12 13 17 15 16 25 -13 10
-30 9 -32 -13 -32 -13 0 -25 5 -27 11 -2 6 -12 -7 -22 -30 -22 -49 -42 -52
-79 -13 -31 32 -34 47 -12 56 18 7 20 47 3 64 -7 7 -37 12 -67 12 -47 0 -52
-2 -37 -13 14 -10 16 -25 14 -77 -3 -61 -4 -65 -27 -65 -21 0 -29 11 -55 73
-16 39 -33 72 -36 72 -7 0 -30 -45 -30 -57 0 -4 6 1 13 12 13 17 15 16 25 -13
10 -30 9 -32 -13 -32 -13 0 -25 5 -27 11 -2 6 -12 -7 -23 -30 -14 -32 -23 -41
-39 -39 -18 3 -21 11 -24 68 -2 52 0 67 14 77 16 12 15 13 -9 13 -19 0 -30 -7
-36 -22 -5 -13 -18 -43 -29 -68 l-20 -45 -31 68 c-27 58 -35 67 -58 67 -24 0
-25 -1 -9 -13z m485 -14 c12 -23 -4 -53 -29 -53 -16 0 -20 7 -20 35 0 28 4 35
20 35 10 0 23 -8 29 -17z"/>
<path d="M6702 16105 c-16 -34 -15 -43 1 -20 13 17 15 16 25 -13 10 -30 10
-32 -14 -32 -13 0 -24 6 -24 13 -1 6 -10 -6 -22 -28 -11 -22 -26 -43 -32 -47
-6 -4 0 -8 14 -8 22 0 26 5 25 28 0 24 4 27 36 30 31 3 37 -1 42 -20 4 -13 1
-26 -6 -30 -7 -4 6 -8 28 -8 29 1 36 3 24 10 -8 5 -28 41 -44 79 -15 39 -31
71 -35 71 -4 0 -12 -11 -18 -25z"/>
<path d="M7202 16105 c-16 -34 -15 -43 1 -20 13 17 15 16 25 -13 10 -30 10
-32 -14 -32 -13 0 -24 6 -24 13 -1 6 -10 -6 -22 -28 -11 -22 -26 -43 -32 -47
-6 -4 0 -8 14 -8 22 0 26 5 25 28 0 24 4 27 36 30 31 3 37 -1 42 -20 4 -13 1
-26 -6 -30 -7 -4 6 -8 28 -8 29 1 36 3 24 10 -8 5 -28 41 -44 79 -15 39 -31
71 -35 71 -4 0 -12 -11 -18 -25z"/>
<path d="M10042 16105 c-16 -34 -15 -43 1 -20 13 17 15 16 25 -13 10 -30 10
-32 -14 -32 -13 0 -24 6 -24 13 -1 6 -10 -6 -22 -28 -11 -22 -26 -43 -32 -47
-6 -4 0 -8 14 -8 22 0 26 5 25 28 0 24 4 27 36 30 31 3 37 -1 42 -20 4 -13 1
-26 -6 -30 -7 -4 6 -8 28 -8 29 1 36 3 24 10 -8 5 -28 41 -44 79 -15 39 -31
71 -35 71 -4 0 -12 -11 -18 -25z"/>
<path d="M11370 16030 c0 -5 14 -10 30 -10 17 0 30 5 30 10 0 6 -13 10 -30 10
-16 0 -30 -4 -30 -10z"/>
<path d="M6995 15710 c-3 -5 -1 -10 4 -10 6 0 11 -11 11 -24 0 -19 -4 -23 -20
-19 -28 7 -60 -24 -60 -58 0 -30 23 -59 46 -59 10 0 9 5 -6 20 -24 24 -26 63
-5 80 25 21 47 -6 43 -54 -2 -27 1 -41 10 -41 6 0 12 3 12 8 0 4 0 43 0 87 0
63 -3 80 -14 80 -8 0 -18 -4 -21 -10z"/>
<path d="M7485 15711 c-3 -5 -1 -12 5 -16 14 -9 13 -128 -2 -143 -9 -9 -7 -12
13 -12 24 0 24 0 21 90 -3 68 -7 90 -17 90 -8 0 -16 -4 -20 -9z"/>
<path d="M6232 15698 c-22 -22 -12 -47 28 -75 30 -19 40 -32 38 -47 -4 -30
-42 -33 -62 -4 l-16 22 0 -21 c0 -17 8 -24 37 -29 31 -6 39 -3 55 15 22 29 12
51 -37 80 -24 14 -35 27 -33 38 4 24 32 28 52 8 13 -14 16 -14 16 -2 0 26 -56
37 -78 15z"/>
<path d="M7252 15698 c-22 -22 -12 -47 28 -75 30 -19 40 -32 38 -47 -4 -30
-42 -33 -62 -4 l-16 22 0 -21 c0 -17 8 -24 37 -29 31 -6 39 -3 55 15 22 29 12
51 -37 80 -24 14 -35 27 -33 38 4 24 32 28 52 8 13 -14 16 -14 16 -2 0 26 -56
37 -78 15z"/>
<path d="M7666 15689 c14 -16 19 -36 19 -84 0 -48 -5 -68 -19 -84 -11 -12 -14
-21 -7 -21 20 0 51 63 51 105 0 42 -31 105 -51 105 -7 0 -4 -9 7 -21z"/>
<path d="M6576 15683 c-4 -13 -16 -23 -27 -23 -10 0 -19 -5 -19 -11 0 -6 9 -8
20 -4 18 6 20 2 20 -45 0 -53 19 -75 43 -51 9 9 8 11 -5 6 -16 -6 -18 -1 -18
43 0 40 4 52 18 55 15 4 15 5 0 6 -9 0 -18 11 -20 24 l-4 22 -8 -22z"/>
<path d="M6367 15642 c-38 -42 -4 -111 48 -98 15 4 30 17 35 31 23 61 -42 113
-83 67z m52 -6 c18 -22 10 -80 -11 -84 -23 -4 -43 38 -34 72 7 29 27 34 45 12z"/>
<path d="M6480 15650 c-10 -6 -11 -10 -2 -10 8 0 12 -16 12 -44 0 -26 -5 -46
-12 -49 -7 -3 3 -5 22 -5 19 0 29 2 23 5 -8 3 -13 25 -13 59 0 55 -4 61 -30
44z"/>
<path d="M6647 15642 c-10 -10 -17 -30 -17 -45 0 -47 52 -75 79 -43 10 12 8
13 -8 9 -23 -6 -51 12 -51 33 0 9 12 14 35 14 36 0 46 15 23 38 -17 17 -42 15
-61 -6z m51 -9 c2 -8 -6 -13 -22 -13 -25 0 -33 10 -19 24 10 10 36 3 41 -11z"/>
<path d="M6757 15642 c-38 -42 -4 -111 48 -98 15 4 30 17 35 31 23 61 -42 113
-83 67z m52 -6 c18 -22 10 -80 -11 -84 -23 -4 -43 38 -34 72 7 29 27 34 45 12z"/>
<path d="M7077 15642 c-10 -10 -17 -30 -17 -45 0 -47 52 -75 79 -43 10 12 8
13 -8 9 -23 -6 -51 12 -51 33 0 9 12 14 35 14 36 0 46 15 23 38 -17 17 -42 15
-61 -6z m51 -9 c2 -8 -6 -13 -22 -13 -25 0 -33 10 -19 24 10 10 36 3 41 -11z"/>
<path d="M7382 15647 c-7 -8 -9 -17 -5 -20 3 -4 11 1 18 10 7 9 17 13 23 9 20
-12 14 -25 -19 -41 -35 -19 -38 -57 -4 -63 16 -3 18 -1 8 9 -19 19 -16 37 8
49 19 11 20 9 17 -22 -2 -23 1 -34 12 -36 13 -2 14 7 10 55 -5 53 -7 58 -31
61 -14 2 -31 -3 -37 -11z"/>
<path d="M7552 15647 c-7 -8 -9 -17 -5 -20 3 -4 11 1 18 10 7 9 17 13 23 9 20
-12 14 -25 -19 -41 -35 -19 -38 -57 -4 -63 16 -3 18 -1 8 9 -19 19 -16 37 8
49 19 11 20 9 17 -22 -2 -23 1 -34 12 -36 13 -2 14 7 10 55 -5 53 -7 58 -31
61 -14 2 -31 -3 -37 -11z"/>
<path d="M2240 8705 l0 -5335 4725 0 4725 0 0 5335 0 5335 -4725 0 -4725 0 0
-5335z m9440 4675 l0 -650 -4715 0 -4715 0 0 650 0 650 4715 0 4715 0 0 -650z
m-8290 -840 l0 -180 -570 0 -570 0 0 180 0 180 570 0 570 0 0 -180z m1040 0
l0 -180 -515 0 -515 0 0 180 0 180 515 0 515 0 0 -180z m1030 0 l0 -180 -510
0 -510 0 0 180 0 180 510 0 510 0 0 -180z m6220 0 l0 -180 -3105 0 -3105 0 0
180 0 180 3105 0 3105 0 0 -180z m-8290 -405 l0 -215 -570 0 -570 0 0 215 0
215 570 0 570 0 0 -215z m1040 0 l0 -215 -515 0 -515 0 0 215 0 215 515 0 515
0 0 -215z m1030 0 l0 -215 -510 0 -510 0 0 215 0 215 510 0 510 0 0 -215z
m6220 0 l0 -215 -3105 0 -3105 0 0 215 0 215 3105 0 3105 0 0 -215z m-8290
-440 l0 -215 -570 0 -570 0 0 215 0 215 570 0 570 0 0 -215z m1040 0 l0 -215
-515 0 -515 0 0 215 0 215 515 0 515 0 0 -215z m1030 0 l0 -215 -510 0 -510 0
0 215 0 215 510 0 510 0 0 -215z m6220 0 l0 -215 -3105 0 -3105 0 0 215 0 215
3105 0 3105 0 0 -215z m-8290 -440 l0 -215 -570 0 -570 0 0 215 0 215 570 0
570 0 0 -215z m1038 -2 l2 -213 -515 0 -515 0 0 208 c0 115 3 212 7 215 3 4
234 6 512 5 l506 -3 3 -212z m1030 0 l2 -213 -510 0 -510 0 0 215 0 215 508
-2 507 -3 3 -212z m6222 2 l0 -215 -3105 0 -3105 0 0 215 0 215 3105 0 3105 0
0 -215z m-8290 -440 l0 -215 -570 0 -570 0 0 208 c0 115 3 212 7 215 3 4 260
7 570 7 l563 0 0 -215z m1038 -2 l2 -213 -515 0 -515 0 0 208 c0 115 3 212 7
215 3 4 234 6 512 5 l506 -3 3 -212z m1030 0 l2 -213 -510 0 -510 0 0 215 0
215 508 -2 507 -3 3 -212z m6220 3 c1 -121 -2 -212 -7 -215 -5 -3 -1402 -5
-3105 -3 l-3096 2 0 215 0 215 3103 -2 3102 -3 3 -209z m-3100 -236 l3102 0 0
-645 0 -645 -4715 0 -4715 0 0 645 0 645 573 2 c314 2 1040 2 1612 1 572 -2
2436 -3 4143 -3z m-3118 -1480 l0 -180 -1605 0 -1605 0 0 180 0 180 1605 0
1605 0 0 -180z m6220 0 l0 -180 -3105 0 -3105 0 0 180 0 180 3105 0 3105 0 0
-180z m-6220 -370 l0 -180 -1605 0 -1605 0 0 180 0 180 1605 0 1605 0 0 -180z
m6220 0 l0 -180 -3105 0 -3105 0 0 180 0 180 3105 0 3105 0 0 -180z m-6220
-370 l0 -180 -1605 0 -1605 0 0 180 0 180 1605 0 1605 0 0 -180z m6220 0 l0
-180 -3105 0 -3105 0 0 180 0 180 3105 0 3105 0 0 -180z m0 -840 l0 -650
-4715 0 -4715 0 0 650 0 650 4715 0 4715 0 0 -650z m-5190 -840 l0 -180 -2120
0 -2120 0 0 180 0 180 2120 0 2120 0 0 -180z m5190 0 l0 -180 -2590 0 -2590 0
0 180 0 180 2590 0 2590 0 0 -180z m0 -835 l0 -645 -4715 0 -4715 0 0 645 0
645 4715 0 4715 0 0 -645z m-4720 -1015 l0 -360 -2355 0 -2355 0 0 360 0 360
2355 0 2355 0 0 -360z m4720 0 l0 -360 -2355 0 -2355 0 0 360 0 360 2355 0
2355 0 0 -360z m-4720 -910 l0 -540 -2355 0 -2355 0 0 540 0 540 2355 0 2355
0 0 -540z m4720 0 l0 -540 -2355 0 -2355 0 0 540 0 540 2355 0 2355 0 0 -540z"/>
<path d="M3848 13528 c16 -16 16 -130 0 -146 -9 -9 0 -12 43 -12 83 0 126 40
79 73 -18 13 -19 16 -5 27 21 17 19 47 -4 60 -11 5 -43 10 -72 10 -41 0 -50
-3 -41 -12z m86 -20 c7 -12 6 -21 -3 -32 -21 -25 -31 -19 -31 20 0 37 14 42
34 12z m1 -93 c0 -20 -6 -31 -17 -33 -15 -3 -18 4 -18 33 0 29 3 36 18 33 11
-2 17 -13 17 -33z"/>
<path d="M4035 13515 c-77 -76 38 -193 120 -122 21 17 27 32 27 62 0 76 -93
115 -147 60z m95 -4 c5 -11 10 -36 10 -56 0 -67 -38 -98 -71 -58 -17 20 -17
97 1 118 17 21 47 19 60 -4z"/>
<path d="M4240 13511 c-18 -18 -30 -40 -30 -56 0 -36 50 -85 87 -85 46 0 73
11 73 29 0 9 5 22 12 29 9 9 2 12 -32 11 -25 0 -39 -3 -32 -6 6 -2 12 -16 12
-29 0 -19 -5 -24 -24 -24 -41 0 -65 56 -45 107 18 47 55 57 89 23 l20 -20 0
23 c0 19 -6 22 -50 25 -45 3 -54 0 -80 -27z"/>
<path d="M4584 13527 c14 -10 16 -25 14 -77 -3 -57 -5 -65 -23 -65 -15 0 -29
18 -54 73 -19 39 -38 72 -42 72 -4 0 -12 -13 -17 -30 -8 -20 -8 -29 0 -27 5 1
14 -8 19 -20 7 -20 5 -23 -16 -23 -19 0 -23 4 -19 18 3 9 -2 4 -12 -13 -9 -16
-23 -38 -32 -47 -14 -17 -13 -18 19 -17 19 0 28 3 22 6 -7 2 -13 13 -13 24 0
28 65 27 73 -1 3 -10 0 -21 -7 -24 -6 -3 38 -4 97 -3 101 2 110 4 128 26 27
33 25 86 -6 116 -20 21 -34 25 -86 25 -53 0 -60 -2 -45 -13z m96 -13 c8 -8 13
-35 13 -59 0 -45 -15 -75 -39 -75 -11 0 -14 18 -14 75 0 78 11 95 40 59z"/>
<path d="M4785 13515 c-77 -76 38 -193 120 -122 21 17 27 32 27 62 0 76 -93
115 -147 60z m95 -4 c5 -11 10 -36 10 -56 0 -67 -38 -98 -71 -58 -17 20 -17
97 1 118 17 21 47 19 60 -4z"/>
<path d="M4976 13521 c-25 -28 -12 -57 35 -82 27 -13 39 -26 37 -37 -5 -28
-43 -26 -67 4 l-21 27 0 -29 c0 -27 3 -29 44 -31 32 -2 47 2 60 16 27 30 16
62 -32 94 -29 19 -40 33 -34 39 15 15 48 1 60 -25 10 -21 11 -21 11 8 1 28 -2
30 -37 33 -28 2 -44 -3 -56 -17z"/>
<path d="M5163 13530 c13 -9 17 -25 17 -75 0 -50 -4 -66 -17 -74 -15 -8 -11
-10 17 -10 19 0 29 3 23 6 -9 3 -13 26 -13 66 l1 62 33 -70 32 -70 11 30 c6
17 14 39 18 50 6 19 6 19 -6 1 -11 -17 -14 -14 -33 35 -21 52 -24 54 -62 57
-31 2 -35 0 -21 -8z"/>
<path d="M5301 13509 c-15 -43 -13 -49 4 -19 14 24 14 22 15 -37 0 -49 -4 -64
-17 -72 -14 -8 -7 -10 32 -10 28 0 44 3 38 6 -9 3 -13 29 -13 78 0 49 4 75 13
78 6 3 -4 6 -25 6 -32 1 -37 -3 -47 -30z"/>
<path d="M5580 13523 c0 -13 3 -14 12 -5 7 7 18 12 25 12 18 0 18 -146 1 -153
-7 -3 10 -6 37 -6 39 0 46 2 33 10 -15 8 -18 24 -18 79 0 63 2 70 19 70 11 0
23 -5 27 -11 5 -8 9 -8 14 1 16 26 30 -3 30 -65 0 -50 -4 -66 -17 -74 -14 -8
-7 -10 32 -11 31 0 45 4 37 9 -8 5 -12 22 -10 42 l3 33 28 -42 27 -42 73 1
c39 0 66 3 60 6 -9 3 -13 29 -13 78 0 49 4 75 13 78 6 3 -10 6 -37 6 -43 1
-47 -1 -32 -12 24 -18 20 -140 -6 -145 -18 -4 -75 71 -58 76 6 2 15 13 21 24
8 15 7 24 -7 39 -15 17 -32 19 -156 19 -123 0 -138 -2 -138 -17z m263 -15 c8
-12 7 -21 -2 -32 -23 -28 -41 -19 -41 20 0 28 4 35 16 32 9 -2 22 -10 27 -20z"/>
<path d="M6050 13511 c-46 -45 -38 -100 17 -129 30 -16 65 -15 89 3 18 14 17
14 -8 4 -59 -25 -101 30 -77 101 16 44 55 52 86 16 l23 -27 0 28 c0 27 -3 28
-50 31 -45 2 -54 -1 -80 -27z"/>
<path d="M6208 13528 c7 -7 12 -39 12 -75 0 -67 12 -83 62 -83 43 0 53 16 58
87 5 65 6 68 30 68 24 0 25 -3 28 -65 2 -52 0 -67 -14 -77 -15 -11 -6 -13 58
-13 70 0 76 2 82 23 10 37 6 43 -10 15 -11 -21 -22 -28 -44 -28 l-30 0 0 74
c0 50 4 76 13 79 6 3 -24 6 -68 6 -46 0 -74 -3 -67 -8 20 -12 12 -131 -9 -144
-35 -22 -49 -2 -49 72 0 46 4 71 13 74 6 3 -8 6 -32 6 -35 1 -42 -2 -33 -11z"/>
<path d="M6724 13527 c14 -10 16 -25 14 -77 -3 -57 -5 -65 -23 -65 -15 0 -29
18 -54 73 -19 39 -38 72 -42 72 -4 0 -12 -13 -17 -30 -8 -20 -8 -29 0 -27 5 1
14 -8 19 -20 7 -20 5 -23 -16 -23 -19 0 -23 4 -19 18 3 9 -2 4 -12 -13 -9 -16
-23 -38 -32 -47 -14 -17 -13 -18 19 -17 19 0 28 3 22 6 -7 2 -13 13 -13 24 0
28 65 27 73 -1 3 -10 0 -21 -7 -24 -6 -3 38 -4 97 -3 101 2 110 4 128 26 27
33 25 86 -6 116 -20 21 -34 25 -86 25 -53 0 -60 -2 -45 -13z m96 -13 c8 -8 13
-35 13 -59 0 -45 -15 -75 -39 -75 -11 0 -14 18 -14 75 0 78 11 95 40 59z"/>
<path d="M6925 13515 c-77 -76 38 -193 120 -122 21 17 27 32 27 62 0 76 -93
115 -147 60z m95 -4 c5 -11 10 -36 10 -56 0 -67 -38 -98 -71 -58 -17 20 -17
97 1 118 17 21 47 19 60 -4z"/>
<path d="M7106 13521 c-25 -28 -12 -57 35 -82 27 -13 39 -26 37 -37 -5 -28
-43 -26 -67 4 l-21 27 0 -29 c0 -27 3 -29 44 -31 32 -2 47 2 60 16 27 30 16
62 -32 94 -29 19 -40 33 -34 39 15 15 48 1 60 -25 10 -21 11 -21 11 8 1 28 -2
30 -37 33 -28 2 -44 -3 -56 -17z"/>
<path d="M7308 13533 c8 -3 12 -29 12 -78 0 -49 -4 -75 -12 -78 -7 -3 7 -5 32
-5 25 0 39 2 33 5 -7 2 -13 19 -13 37 0 27 5 33 33 41 23 7 33 17 35 34 5 35
-22 51 -82 50 -28 0 -45 -3 -38 -6z m77 -38 c0 -16 -6 -30 -12 -32 -9 -3 -13
7 -13 32 0 25 4 35 13 33 6 -3 12 -17 12 -33z"/>
<path d="M7475 13515 c-77 -76 38 -193 120 -122 21 17 27 32 27 62 0 76 -93
115 -147 60z m95 -4 c5 -11 10 -36 10 -56 0 -67 -38 -98 -71 -58 -17 20 -17
97 1 118 17 21 47 19 60 -4z"/>
<path d="M7643 13529 c13 -8 17 -24 17 -74 0 -50 -4 -66 -17 -74 -14 -8 -7
-10 32 -11 31 0 45 4 37 9 -8 5 -12 22 -10 42 l3 33 28 -42 c20 -31 34 -42 52
-42 l25 0 -31 42 c-16 24 -25 44 -19 46 5 2 15 13 21 24 8 15 7 24 -7 39 -14
15 -31 19 -83 19 -50 -1 -62 -3 -48 -11z m100 -21 c8 -12 7 -21 -2 -32 -23
-28 -41 -19 -41 20 0 28 4 35 16 32 9 -2 22 -10 27 -20z"/>
<path d="M7893 13529 c13 -8 17 -24 17 -74 0 -50 -4 -66 -17 -74 -14 -8 2 -10
58 -11 71 0 77 2 83 23 10 37 6 43 -10 15 -11 -21 -22 -28 -44 -28 l-30 0 0
74 c0 50 4 76 13 79 6 3 -10 6 -38 6 -39 0 -46 -2 -32 -10z"/>
<path d="M8308 13533 c8 -3 12 -29 12 -78 0 -49 -4 -75 -12 -78 -7 -3 7 -5 32
-5 25 0 39 2 33 5 -7 2 -13 19 -13 37 0 27 5 33 33 41 23 7 33 17 35 34 5 35
-22 51 -82 50 -28 0 -45 -3 -38 -6z m77 -38 c0 -16 -6 -30 -12 -32 -9 -3 -13
7 -13 32 0 25 4 35 13 33 6 -3 12 -17 12 -33z"/>
<path d="M8634 13527 c14 -10 16 -25 14 -77 -3 -57 -5 -65 -23 -65 -15 0 -29
18 -54 73 -19 39 -38 72 -42 72 -4 0 -12 -13 -17 -30 -8 -20 -8 -29 0 -27 5 1
14 -8 19 -20 7 -20 5 -23 -16 -23 -19 0 -23 4 -19 18 3 9 -2 4 -12 -13 -9 -16
-23 -38 -32 -47 -14 -17 -13 -18 19 -17 19 0 28 3 22 6 -7 2 -13 13 -13 24 0
28 65 27 73 -1 3 -10 0 -21 -7 -24 -6 -2 30 -5 79 -5 52 0 84 3 77 8 -8 5 -12
22 -10 42 l3 33 28 -42 c20 -31 34 -42 52 -42 l25 0 -31 42 c-16 24 -25 44
-19 46 5 2 15 13 21 24 8 15 7 24 -7 39 -13 15 -31 19 -82 19 -56 0 -63 -2
-48 -13z m99 -19 c8 -12 7 -21 -2 -32 -23 -28 -41 -19 -41 20 0 28 4 35 16 32
9 -2 22 -10 27 -20z"/>
<path d="M8810 13523 c0 -13 3 -14 12 -5 7 7 18 12 25 12 18 0 18 -146 1 -153
-7 -3 10 -6 37 -6 39 0 46 2 33 10 -15 8 -18 24 -18 79 0 61 2 70 18 70 10 0
23 -5 30 -12 9 -9 12 -8 12 5 0 14 -11 17 -75 17 -64 0 -75 -3 -75 -17z"/>
<path d="M8978 13528 c7 -7 12 -39 12 -75 0 -48 -4 -64 -17 -72 -13 -8 2 -10
60 -11 71 0 77 2 77 21 0 19 -1 19 -16 5 -8 -9 -26 -16 -40 -16 -21 0 -24 5
-24 35 0 40 16 46 30 13 7 -18 9 -13 9 27 0 40 -2 45 -9 28 -14 -34 -30 -28
-30 12 0 30 3 35 25 35 13 0 29 -8 34 -17 9 -16 10 -16 11 5 0 21 -4 22 -67
22 -52 0 -64 -3 -55 -12z"/>
<path d="M9410 13511 c-46 -45 -38 -100 17 -129 30 -16 65 -15 89 3 18 14 17
14 -8 4 -59 -25 -101 30 -77 101 16 44 55 52 86 16 l23 -27 0 28 c0 27 -3 28
-50 31 -45 2 -54 -1 -80 -27z"/>
<path d="M9560 13523 c0 -13 3 -14 12 -5 7 7 18 12 25 12 18 0 18 -146 1 -153
-7 -3 10 -6 37 -6 39 0 46 2 33 10 -15 8 -18 24 -18 79 0 61 2 70 18 70 10 0
23 -5 30 -12 9 -9 12 -8 12 5 0 14 -11 17 -75 17 -64 0 -75 -3 -75 -17z"/>
<path d="M9755 13515 c-77 -76 38 -193 120 -122 21 17 27 32 27 62 0 76 -93
115 -147 60z m95 -4 c5 -11 10 -36 10 -56 0 -67 -38 -98 -71 -58 -17 20 -17
97 1 118 17 21 47 19 60 -4z"/>
<path d="M9923 13529 c13 -8 17 -24 17 -74 0 -50 -4 -66 -17 -74 -14 -8 -7
-10 32 -11 31 0 45 4 37 9 -8 5 -12 22 -10 42 l3 33 28 -42 c27 -41 28 -42 85
-41 31 0 51 3 45 6 -7 2 -13 13 -13 24 0 28 65 27 73 -1 3 -10 0 -21 -7 -24
-6 -2 9 -5 33 -5 41 -1 43 0 28 17 -8 9 -28 45 -43 80 -14 34 -30 62 -34 62
-5 0 -13 -13 -18 -30 -8 -20 -8 -29 0 -27 5 1 14 -8 19 -20 7 -20 5 -23 -16
-23 -19 0 -23 4 -19 18 3 9 -5 -1 -18 -22 -12 -22 -28 -41 -35 -43 -6 -2 -23
13 -37 34 -15 21 -22 39 -16 41 6 2 15 13 21 24 8 15 7 24 -7 39 -14 15 -31
19 -83 19 -50 -1 -62 -3 -48 -11z m100 -21 c8 -12 7 -21 -2 -32 -23 -28 -41
-19 -41 20 0 28 4 35 16 32 9 -2 22 -10 27 -20z"/>
<path d="M3722 13500 c-8 -20 -8 -29 0 -27 5 1 14 -8 19 -20 7 -20 5 -23 -16
-23 -19 0 -23 4 -19 18 3 9 -2 4 -12 -13 -9 -16 -23 -38 -32 -47 -14 -17 -13
-18 19 -17 19 0 28 3 22 6 -7 2 -13 13 -13 24 0 28 65 27 73 -1 3 -10 0 -21
-7 -24 -6 -2 9 -5 33 -5 41 -1 43 0 28 17 -8 9 -28 45 -43 80 -14 34 -30 62
-34 62 -5 0 -13 -13 -18 -30z"/>
<path d="M5462 13500 c-8 -20 -8 -29 0 -27 5 1 14 -8 19 -20 7 -20 5 -23 -16
-23 -19 0 -23 4 -19 18 3 9 -2 4 -12 -13 -9 -16 -23 -38 -32 -47 -14 -17 -13
-18 19 -17 19 0 28 3 22 6 -7 2 -13 13 -13 24 0 28 65 27 73 -1 3 -10 0 -21
-7 -24 -6 -2 9 -5 33 -5 41 -1 43 0 28 17 -8 9 -28 45 -43 80 -14 34 -30 62
-34 62 -5 0 -13 -13 -18 -30z"/>
<path d="M8112 13500 c-8 -20 -8 -29 0 -27 5 1 14 -8 19 -20 7 -20 5 -23 -16
-23 -19 0 -23 4 -19 18 3 9 -2 4 -12 -13 -9 -16 -23 -38 -32 -47 -14 -17 -13
-18 19 -17 19 0 28 3 22 6 -7 2 -13 13 -13 24 0 28 65 27 73 -1 3 -10 0 -21
-7 -24 -6 -2 9 -5 33 -5 41 -1 43 0 28 17 -8 9 -28 45 -43 80 -14 34 -30 62
-34 62 -5 0 -13 -13 -18 -30z"/>
<path d="M9262 13500 c-8 -20 -8 -29 0 -27 5 1 14 -8 19 -20 7 -20 5 -23 -16
-23 -19 0 -23 4 -19 18 3 9 -2 4 -12 -13 -9 -16 -23 -38 -32 -47 -14 -17 -13
-18 19 -17 19 0 28 3 22 6 -7 2 -13 13 -13 24 0 28 65 27 73 -1 3 -10 0 -21
-7 -24 -6 -2 9 -5 33 -5 41 -1 43 0 28 17 -8 9 -28 45 -43 80 -14 34 -30 62
-34 62 -5 0 -13 -13 -18 -30z"/>
<path d="M2668 12664 c7 -4 12 -27 12 -64 0 -37 -5 -60 -12 -63 -7 -3 3 -6 22
-6 26 -1 31 2 22 11 -21 21 -14 46 14 50 35 4 53 31 38 56 -8 12 -26 18 -60
19 -27 1 -43 0 -36 -3z m72 -19 c10 -12 10 -18 0 -30 -21 -25 -40 -18 -40 15
0 33 19 40 40 15z"/>
<path d="M2898 12659 c-3 -8 0 -23 8 -34 20 -27 17 -38 -9 -33 -16 3 -28 -4
-44 -29 l-22 -33 27 0 c18 0 23 3 14 8 -21 14 -3 42 28 42 31 0 49 -28 28 -42
-8 -5 0 -8 22 -8 20 0 30 4 23 8 -7 4 -25 36 -41 72 -18 40 -30 59 -34 49z"/>
<path d="M3620 12661 c0 -5 9 -7 20 -4 18 5 20 0 20 -55 0 -39 -4 -62 -12 -65
-7 -3 3 -6 22 -6 26 -1 31 2 22 11 -7 7 -12 36 -12 66 0 53 1 54 25 50 14 -3
25 -1 25 3 0 5 -25 9 -55 9 -30 0 -55 -4 -55 -9z"/>
<path d="M3770 12650 c-41 -41 -12 -120 45 -120 14 0 34 9 45 20 41 41 12 120
-45 120 -14 0 -34 -9 -45 -20z m84 -22 c13 -37 -3 -82 -30 -86 -44 -6 -69 52
-43 99 16 30 61 22 73 -13z"/>
<path d="M3898 12663 c7 -3 12 -26 12 -63 0 -37 -5 -60 -12 -63 -7 -3 1 -5 17
-5 17 0 24 2 18 5 -8 3 -13 24 -12 56 l1 52 28 -60 28 -60 25 55 25 55 1 -47
c1 -28 -4 -48 -11 -51 -7 -3 3 -5 22 -5 19 0 29 2 23 5 -8 3 -13 26 -13 63 0
37 5 60 13 63 6 3 3 6 -8 6 -15 1 -28 -13 -47 -51 l-26 -53 -24 52 c-19 44
-27 52 -48 52 -14 0 -19 -3 -12 -6z"/>
<path d="M4100 12650 c-41 -41 -12 -120 45 -120 14 0 34 9 45 20 41 41 12 120
-45 120 -14 0 -34 -9 -45 -20z m84 -22 c13 -37 -3 -82 -30 -86 -44 -6 -69 52
-43 99 16 30 61 22 73 -13z"/>
<path d="M4648 12663 c7 -3 12 -26 12 -63 0 -37 -5 -60 -12 -63 -7 -3 3 -5 22
-5 19 0 29 2 23 5 -7 2 -13 18 -13 35 0 27 3 30 25 26 16 -3 25 -1 25 7 0 8
-9 10 -25 7 -22 -4 -25 -1 -25 22 0 20 5 26 23 26 13 0 28 -5 35 -12 9 -9 12
-8 12 5 0 14 -10 17 -57 16 -32 0 -52 -3 -45 -6z"/>
<path d="M4790 12650 c-41 -41 -12 -120 45 -120 14 0 34 9 45 20 41 41 12 120
-45 120 -14 0 -34 -9 -45 -20z m84 -22 c13 -37 -3 -82 -30 -86 -44 -6 -69 52
-43 99 16 30 61 22 73 -13z"/>
<path d="M4918 12663 c7 -3 12 -26 12 -63 0 -37 -5 -60 -12 -64 -7 -3 14 -4
46 -3 43 1 61 6 64 17 4 13 3 13 -11 2 -9 -8 -26 -12 -39 -10 -20 3 -23 10
-26 53 -3 38 1 52 14 62 16 11 13 13 -22 12 -21 0 -33 -3 -26 -6z"/>
<path d="M5048 12658 c16 -16 16 -100 0 -116 -9 -9 -6 -12 17 -12 23 0 26 3
17 12 -16 16 -16 100 0 116 9 9 6 12 -17 12 -23 0 -26 -3 -17 -12z"/>
<path d="M5130 12650 c-41 -41 -12 -120 45 -120 14 0 34 9 45 20 41 41 12 120
-45 120 -14 0 -34 -9 -45 -20z m84 -22 c13 -37 -3 -82 -30 -86 -44 -6 -69 52
-43 99 16 30 61 22 73 -13z"/>
<path d="M7498 12659 c-3 -8 0 -23 8 -34 20 -27 17 -38 -9 -33 -16 3 -28 -4
-44 -29 l-22 -33 27 0 c18 0 23 3 14 8 -21 14 -3 42 28 42 31 0 49 -28 28 -42
-8 -4 14 -8 52 -8 50 0 61 3 52 12 -21 21 -14 46 14 50 35 4 53 31 38 56 -8
12 -26 18 -60 19 -27 1 -43 0 -36 -3 7 -4 12 -27 12 -65 0 -51 -3 -59 -19 -59
-13 0 -26 19 -48 67 -18 43 -31 62 -35 52z m162 -14 c10 -12 10 -18 0 -30 -21
-25 -40 -18 -40 15 0 33 19 40 40 15z"/>
<path d="M7708 12663 c7 -3 12 -26 12 -63 0 -37 -5 -60 -12 -64 -7 -3 14 -4
46 -3 43 1 61 6 64 17 4 13 3 13 -11 2 -27 -23 -62 -11 -65 22 -3 27 -2 28 27
24 19 -3 31 0 31 7 0 7 -11 10 -30 7 -27 -4 -30 -2 -30 23 0 25 3 27 35 23 19
-2 35 0 35 4 0 4 -26 8 -57 7 -32 0 -52 -3 -45 -6z"/>
<path d="M7838 12663 c7 -3 12 -26 12 -63 0 -37 -5 -60 -12 -63 -7 -3 41 -5
106 -4 96 2 120 5 124 17 4 13 3 13 -11 2 -9 -8 -26 -12 -39 -10 -20 3 -23 10
-26 53 -3 38 1 52 14 62 16 11 13 13 -22 12 -21 0 -33 -3 -26 -6 15 -6 17
-123 2 -123 -5 0 -10 5 -10 11 0 8 -4 8 -14 -1 -8 -6 -25 -10 -38 -8 -20 3
-23 10 -26 53 -3 38 1 52 14 62 16 11 13 13 -22 12 -21 0 -33 -3 -26 -6z"/>
<path d="M8098 12658 c7 -7 12 -33 12 -58 0 -25 -5 -51 -12 -58 -9 -9 -6 -12
17 -12 23 0 26 3 17 12 -7 7 -12 33 -12 58 0 25 5 51 12 58 9 9 6 12 -17 12
-23 0 -26 -3 -17 -12z"/>
<path d="M8158 12663 c7 -3 12 -26 12 -63 0 -37 -5 -60 -12 -63 -7 -3 11 -6
40 -6 64 -1 92 21 92 73 0 46 -29 66 -95 65 -27 0 -44 -3 -37 -6z m94 -20 c37
-33 11 -103 -39 -103 -22 0 -23 4 -23 60 0 55 2 60 22 60 12 0 30 -7 40 -17z"/>
<path d="M8330 12650 c-41 -41 -12 -120 45 -120 14 0 34 9 45 20 41 41 12 120
-45 120 -14 0 -34 -9 -45 -20z m84 -22 c13 -37 -3 -82 -30 -86 -44 -6 -69 52
-43 99 16 30 61 22 73 -13z"/>
<path d="M8531 12639 c35 -37 46 -74 29 -94 -11 -13 -8 -15 15 -15 23 0 26 2
15 15 -17 20 -6 57 29 94 l29 31 -24 0 c-15 0 -22 -5 -18 -13 2 -7 -2 -21 -11
-32 -15 -20 -15 -20 -30 0 -9 11 -13 25 -11 32 4 9 -4 13 -23 13 l-29 0 29
-31z"/>
<path d="M8718 12663 c7 -3 12 -26 12 -63 0 -37 -5 -60 -12 -63 -7 -3 0 -6 17
-6 22 -1 26 2 17 11 -13 13 -17 88 -4 88 4 -1 25 -24 47 -53 l40 -52 3 65 c2
36 8 68 15 72 7 5 0 8 -18 8 -20 0 -26 -3 -17 -9 9 -5 12 -23 10 -51 l-3 -44
-40 52 c-25 34 -46 52 -60 51 -11 0 -14 -3 -7 -6z"/>
<path d="M8890 12650 c-41 -41 -12 -120 45 -120 14 0 34 9 45 20 41 41 12 120
-45 120 -14 0 -34 -9 -45 -20z m84 -22 c13 -37 -3 -82 -30 -86 -44 -6 -69 52
-43 99 16 30 61 22 73 -13z"/>
<path d="M9018 12663 c7 -3 12 -26 12 -63 0 -37 -5 -60 -12 -63 -7 -3 1 -5 17
-5 17 0 24 2 18 5 -8 3 -13 24 -12 56 l1 52 28 -60 28 -60 25 55 25 55 1 -47
c1 -28 -4 -48 -11 -51 -7 -3 24 -6 69 -6 62 -1 85 3 97 15 20 19 20 29 2 46
-10 9 -10 17 -3 30 20 31 -8 48 -82 48 l-67 0 -26 -52 -26 -53 -24 52 c-19 44
-27 52 -48 52 -14 0 -19 -3 -12 -6z m192 -63 c0 -53 -2 -60 -20 -60 -18 0 -20
7 -20 60 0 53 2 60 20 60 18 0 20 -7 20 -60z m69 51 c21 -13 5 -41 -24 -41
-20 0 -25 5 -25 25 0 26 22 33 49 16z m6 -81 c0 -20 -6 -26 -27 -28 -25 -3
-28 0 -28 28 0 28 3 31 28 28 21 -2 27 -8 27 -28z"/>
<path d="M9338 12664 c7 -4 12 -27 12 -64 0 -37 -5 -60 -12 -63 -7 -3 3 -6 22
-6 26 -1 31 2 22 11 -14 14 -16 58 -3 58 5 0 19 -16 31 -35 l22 -36 71 3 c52
2 72 7 75 18 4 13 3 13 -11 2 -27 -23 -62 -11 -65 22 -3 27 -2 28 27 24 19 -3
31 0 31 7 0 7 -11 10 -30 7 -27 -4 -30 -2 -30 23 0 25 3 27 35 23 19 -2 35 0
35 4 0 4 -26 8 -57 7 -32 0 -52 -3 -45 -6 8 -3 12 -26 12 -64 0 -69 -15 -77
-50 -28 -22 29 -22 31 -4 44 32 24 6 50 -52 52 -27 1 -43 0 -36 -3z m79 -20
c6 -16 -12 -34 -34 -34 -7 0 -13 11 -13 25 0 18 5 25 20 25 11 0 23 -7 27 -16z"/>
<path d="M9611 12656 c-16 -20 -4 -42 36 -66 19 -11 33 -26 30 -33 -6 -19 -37
-20 -58 -1 -16 15 -19 15 -19 2 0 -14 27 -28 57 -28 19 0 43 29 37 45 -3 8
-21 24 -40 36 -19 11 -34 25 -34 30 0 19 31 21 50 4 19 -17 20 -17 20 1 0 14
-8 20 -34 21 -19 2 -39 -3 -45 -11z"/>
<path d="M6730 10061 c-46 -45 -38 -100 17 -129 30 -16 65 -15 89 3 18 14 17
14 -8 4 -59 -25 -101 30 -77 101 16 44 55 52 86 16 l23 -27 0 28 c0 27 -3 28
-50 31 -45 2 -54 -1 -80 -27z"/>
<path d="M6880 10073 c0 -13 3 -14 12 -5 7 7 18 12 25 12 18 0 18 -146 1 -153
-7 -3 10 -6 37 -6 39 0 46 2 33 10 -15 8 -18 24 -18 79 0 61 2 70 18 70 10 0
23 -5 30 -12 9 -9 12 -8 12 5 0 14 -11 17 -75 17 -64 0 -75 -3 -75 -17z"/>
<path d="M7075 10065 c-77 -76 38 -193 120 -122 21 17 27 32 27 62 0 76 -93
115 -147 60z m95 -4 c5 -11 10 -36 10 -56 0 -67 -38 -98 -71 -58 -17 20 -17
97 1 118 17 21 47 19 60 -4z"/>
<path d="M7243 10079 c13 -8 17 -24 17 -74 0 -50 -4 -66 -17 -74 -14 -8 -7
-10 32 -11 31 0 45 4 37 9 -8 5 -12 22 -10 42 l3 33 28 -42 c20 -31 34 -42 52
-42 l25 0 -31 42 c-16 24 -25 44 -19 46 5 2 15 13 21 24 8 15 7 24 -7 39 -14
15 -31 19 -83 19 -50 -1 -62 -3 -48 -11z m100 -21 c8 -12 7 -21 -2 -32 -23
-28 -41 -19 -41 20 0 28 4 35 16 32 9 -2 22 -10 27 -20z"/>
<path d="M6582 10050 c-8 -20 -8 -29 0 -27 5 1 14 -8 19 -20 7 -20 5 -23 -16
-23 -19 0 -23 4 -19 18 3 9 -2 4 -12 -13 -9 -16 -23 -38 -32 -47 -14 -17 -13
-18 19 -17 19 0 28 3 22 6 -7 2 -13 13 -13 24 0 28 65 27 73 -1 3 -10 0 -21
-7 -24 -6 -2 9 -5 33 -5 41 -1 43 0 28 17 -8 9 -28 45 -43 80 -14 34 -30 62
-34 62 -5 0 -13 -13 -18 -30z"/>
<path d="M2368 9224 c7 -4 12 -27 12 -64 0 -37 -5 -60 -12 -63 -7 -3 3 -6 22
-6 26 -1 31 2 22 11 -14 14 -16 58 -3 58 5 0 19 -16 31 -35 20 -32 26 -35 68
-35 28 0 42 4 34 8 -21 14 -3 42 28 42 31 0 49 -28 28 -42 -7 -4 28 -8 80 -8
80 0 92 2 92 17 0 13 -3 14 -12 5 -7 -7 -27 -12 -46 -12 l-33 0 46 65 47 65
-51 0 c-28 0 -51 -4 -51 -8 0 -4 16 -6 37 -4 l36 5 -43 -62 c-24 -33 -48 -61
-55 -61 -7 0 -25 29 -41 65 -17 41 -30 61 -35 54 -4 -7 -1 -22 7 -33 20 -29
18 -38 -8 -34 -16 2 -28 -5 -40 -24 -23 -36 -41 -35 -68 3 -22 29 -22 31 -4
44 32 24 6 50 -52 52 -27 1 -43 0 -36 -3z m79 -20 c6 -16 -12 -34 -34 -34 -7
0 -13 11 -13 25 0 18 5 25 20 25 11 0 23 -7 27 -16z"/>
<path d="M2800 9210 c-41 -41 -12 -120 45 -120 14 0 34 9 45 20 41 41 12 120
-45 120 -14 0 -34 -9 -45 -20z m84 -22 c13 -37 -3 -82 -30 -86 -44 -6 -69 52
-43 99 16 30 61 22 73 -13z"/>
<path d="M2928 9223 c7 -3 12 -26 12 -63 0 -37 -5 -60 -12 -63 -7 -3 0 -6 17
-6 22 -1 26 2 17 11 -13 13 -17 88 -4 88 4 -1 25 -24 47 -53 l40 -52 3 65 c2
36 8 68 15 72 7 5 0 8 -18 8 -20 0 -26 -3 -17 -9 9 -5 12 -23 10 -51 l-3 -44
-40 52 c-25 34 -46 52 -60 51 -11 0 -14 -3 -7 -6z"/>
<path d="M3151 9216 c-16 -20 -4 -42 36 -66 19 -11 33 -26 30 -33 -6 -19 -37
-20 -58 -1 -16 15 -19 15 -19 2 0 -14 27 -28 57 -28 19 0 43 29 37 45 -3 8
-21 24 -40 36 -19 11 -34 25 -34 30 0 19 31 21 50 4 19 -17 20 -17 20 1 0 14
-8 20 -34 21 -19 2 -39 -3 -45 -11z"/>
<path d="M3270 9210 c-41 -41 -12 -120 45 -120 14 0 34 9 45 20 41 41 12 120
-45 120 -14 0 -34 -9 -45 -20z m84 -22 c13 -37 -3 -82 -30 -86 -44 -6 -69 52
-43 99 16 30 61 22 73 -13z"/>
<path d="M3422 9210 c-28 -26 -29 -73 -2 -100 21 -21 64 -27 74 -11 4 5 -3 7
-14 4 -26 -7 -60 23 -60 51 0 28 27 66 47 66 9 0 25 -7 35 -17 17 -15 18 -15
18 3 0 29 -69 31 -98 4z"/>
<path d="M3548 9218 c16 -16 16 -100 0 -116 -9 -9 -6 -12 17 -12 23 0 26 3 17
12 -16 16 -16 100 0 116 9 9 6 12 -17 12 -23 0 -26 -3 -17 -12z"/>
<path d="M3668 9219 c-3 -8 0 -23 8 -34 20 -27 17 -38 -9 -33 -16 3 -28 -4
-44 -29 l-22 -33 27 0 c18 0 23 3 14 8 -21 14 -3 42 28 42 31 0 49 -28 28 -42
-7 -5 26 -7 76 -6 69 2 91 6 94 18 4 13 3 13 -11 2 -9 -8 -26 -12 -39 -10 -20
3 -23 10 -26 53 -3 38 1 52 14 62 16 11 13 13 -22 12 -21 0 -33 -3 -26 -6 8
-3 12 -26 12 -64 0 -51 -3 -59 -19 -59 -13 0 -26 19 -48 67 -18 43 -31 62 -35
52z"/>
<path d="M5598 9218 c7 -7 12 -33 12 -58 0 -25 -5 -51 -12 -58 -9 -9 -6 -12
17 -12 23 0 26 3 17 12 -7 7 -12 33 -12 58 0 25 5 51 12 58 9 9 6 12 -17 12
-23 0 -26 -3 -17 -12z"/>
<path d="M5708 9223 c7 -3 12 -26 12 -63 0 -37 -5 -60 -12 -64 -7 -3 14 -4 46
-3 43 1 61 6 64 17 4 13 3 13 -11 2 -27 -23 -62 -11 -65 22 -3 27 -2 28 27 24
19 -3 31 0 31 7 0 7 -11 10 -30 7 -27 -4 -30 -2 -30 23 0 25 3 27 35 23 19 -2
35 0 35 4 0 4 -26 8 -57 7 -32 0 -52 -3 -45 -6z"/>
<path d="M5888 9224 c7 -4 12 -27 12 -64 0 -37 -5 -60 -12 -63 -7 -3 3 -6 22
-6 26 -1 31 2 22 11 -14 14 -16 58 -3 58 5 0 19 -16 31 -35 14 -23 29 -35 43
-35 19 1 20 2 6 10 -9 5 -24 21 -33 36 -17 24 -17 26 1 39 31 24 5 50 -53 52
-27 1 -43 0 -36 -3z m79 -20 c6 -16 -12 -34 -34 -34 -7 0 -13 11 -13 25 0 18
5 25 20 25 11 0 23 -7 27 -16z"/>
<path d="M6088 9218 c7 -7 12 -33 12 -58 0 -25 -5 -51 -12 -58 -9 -9 -6 -12
17 -12 23 0 26 3 17 12 -7 7 -12 33 -12 58 0 25 5 51 12 58 9 9 6 12 -17 12
-23 0 -26 -3 -17 -12z"/>
<path d="M6222 9210 c-28 -26 -29 -73 -2 -100 21 -21 64 -27 74 -11 4 5 -3 7
-14 4 -26 -7 -60 23 -60 51 0 28 27 66 47 66 9 0 25 -7 35 -17 17 -15 18 -15
18 3 0 29 -69 31 -98 4z"/>
<path d="M5670 9100 c0 -5 5 -10 10 -10 6 0 10 5 10 10 0 6 -4 10 -10 10 -5 0
-10 -4 -10 -10z"/>
<path d="M5850 9100 c0 -5 5 -10 10 -10 6 0 10 5 10 10 0 6 -4 10 -10 10 -5 0
-10 -4 -10 -10z"/>
<path d="M6040 9100 c0 -5 5 -10 10 -10 6 0 10 5 10 10 0 6 -4 10 -10 10 -5 0
-10 -4 -10 -10z"/>
<path d="M6160 9100 c0 -5 5 -10 10 -10 6 0 10 5 10 10 0 6 -4 10 -10 10 -5 0
-10 -4 -10 -10z"/>
<path d="M6400 9100 c0 -5 5 -10 10 -10 6 0 10 5 10 10 0 6 -4 10 -10 10 -5 0
-10 -4 -10 -10z"/>
<path d="M2368 8853 c7 -3 12 -26 12 -63 0 -37 -5 -60 -12 -63 -7 -3 0 -6 17
-6 22 -1 26 2 17 11 -13 13 -17 88 -4 88 4 -1 25 -24 47 -53 l40 -52 3 68 c3
59 5 67 22 67 18 0 20 -7 20 -59 0 -38 -4 -61 -12 -64 -7 -3 3 -6 22 -6 26 -1
31 2 22 11 -14 14 -16 58 -3 58 5 0 19 -16 31 -35 14 -23 29 -35 43 -35 19 1
20 2 6 10 -9 5 -24 21 -33 36 -17 24 -17 26 1 39 14 11 16 18 7 32 -9 14 -26
19 -85 21 -44 1 -69 -1 -61 -6 9 -6 12 -25 10 -52 l-3 -44 -40 52 c-25 34 -46
52 -60 51 -11 0 -14 -3 -7 -6z m229 -19 c6 -16 -12 -34 -34 -34 -7 0 -13 11
-13 25 0 18 5 25 20 25 11 0 23 -7 27 -16z"/>
<path d="M2680 8840 c-41 -41 -12 -120 45 -120 14 0 34 9 45 20 41 41 12 120
-45 120 -14 0 -34 -9 -45 -20z m84 -22 c13 -37 -3 -82 -30 -86 -44 -6 -69 52
-43 99 16 30 61 22 73 -13z"/>
<path d="M2858 8853 c7 -3 12 -26 12 -63 0 -37 -5 -60 -12 -63 -7 -3 11 -6 40
-6 64 -1 92 21 92 73 0 46 -29 66 -95 65 -27 0 -44 -3 -37 -6z m94 -20 c37
-33 11 -103 -39 -103 -22 0 -23 4 -23 60 0 55 2 60 22 60 12 0 30 -7 40 -17z"/>
<path d="M3008 8853 c7 -3 12 -26 12 -63 0 -37 -5 -60 -12 -64 -7 -3 14 -4 46
-3 43 1 61 6 64 17 4 13 3 13 -11 2 -27 -23 -62 -11 -65 22 -3 27 -2 28 27 24
19 -3 31 0 31 7 0 7 -11 10 -30 7 -27 -4 -30 -2 -30 23 0 25 3 27 35 23 19 -2
35 0 35 4 0 4 -26 8 -57 7 -32 0 -52 -3 -45 -6z"/>
<path d="M3198 8853 c7 -3 12 -26 12 -63 0 -37 -5 -60 -12 -63 -7 -3 11 -6 40
-6 64 -1 92 21 92 73 0 46 -29 66 -95 65 -27 0 -44 -3 -37 -6z m94 -20 c37
-33 11 -103 -39 -103 -22 0 -23 4 -23 60 0 55 2 60 22 60 12 0 30 -7 40 -17z"/>
<path d="M3348 8853 c7 -3 12 -26 12 -63 0 -37 -5 -60 -12 -63 -7 -3 0 -6 17
-6 22 -1 26 2 17 11 -13 13 -17 88 -4 88 4 -1 25 -24 47 -53 l40 -52 3 65 c2
36 8 68 15 72 7 5 0 8 -18 8 -20 0 -26 -3 -17 -9 9 -5 12 -23 10 -51 l-3 -44
-40 52 c-25 34 -46 52 -60 51 -11 0 -14 -3 -7 -6z"/>
<path d="M3508 8848 c16 -16 16 -100 0 -116 -9 -9 -6 -12 17 -12 23 0 26 3 17
12 -16 16 -16 100 0 116 9 9 6 12 -17 12 -23 0 -26 -3 -17 -12z"/>
<path d="M2381 8476 c-16 -20 -4 -42 36 -66 19 -11 33 -26 30 -33 -6 -19 -37
-20 -58 -1 -16 15 -19 15 -19 2 0 -14 27 -28 57 -28 19 0 43 29 37 45 -3 8
-21 24 -40 36 -19 11 -34 25 -34 30 0 19 31 21 50 4 19 -17 20 -17 20 1 0 14
-8 20 -34 21 -19 2 -39 -3 -45 -11z"/>
<path d="M2488 8483 c7 -3 12 -26 12 -63 0 -37 -5 -60 -12 -64 -7 -3 14 -4 46
-3 43 1 61 6 64 17 4 13 3 13 -11 2 -27 -23 -62 -11 -65 22 -3 27 -2 28 27 24
19 -3 31 0 31 7 0 7 -11 10 -30 7 -27 -4 -30 -2 -30 23 0 25 3 27 35 23 19 -2
35 0 35 4 0 4 -26 8 -57 7 -32 0 -52 -3 -45 -6z"/>
<path d="M2628 8475 c30 -21 85 -103 77 -115 -4 -6 6 -10 23 -10 l30 0 -29 31
c-37 39 -36 51 2 83 l31 26 -26 0 c-17 0 -24 -4 -20 -13 3 -8 -2 -20 -11 -27
-14 -12 -18 -11 -26 1 -5 8 -7 20 -4 27 3 8 -7 12 -33 12 -36 0 -36 0 -14 -15z"/>
<path d="M2790 8470 c-41 -41 -12 -120 45 -120 14 0 34 9 45 20 41 41 12 120
-45 120 -14 0 -34 -9 -45 -20z m84 -22 c13 -37 -3 -82 -30 -86 -44 -6 -69 52
-43 99 16 30 61 22 73 -13z"/>
<path d="M2642 8380 l-32 -30 25 0 c16 0 24 4 20 11 -4 5 1 19 11 30 25 28 14
23 -24 -11z"/>
<path d="M6930 8405 c0 -92 1 -95 23 -94 16 1 18 2 5 6 -15 4 -18 17 -18 88 0
71 3 84 18 88 13 4 11 5 -5 6 -22 1 -23 -2 -23 -94z"/>
<path d="M7163 8493 c14 -4 17 -17 17 -88 0 -71 -3 -84 -17 -88 -14 -4 -12 -5
5 -6 21 -1 22 2 22 94 0 92 -1 95 -22 94 -17 -1 -19 -2 -5 -6z"/>
<path d="M8770 8405 c0 -92 1 -95 23 -94 16 1 18 2 5 6 -15 4 -18 17 -18 88 0
71 3 84 18 88 13 4 11 5 -5 6 -22 1 -23 -2 -23 -94z"/>
<path d="M9003 8493 c14 -4 17 -17 17 -88 0 -71 -3 -84 -17 -88 -14 -4 -12 -5
5 -6 21 -1 22 2 22 94 0 92 -1 95 -22 94 -17 -1 -19 -2 -5 -6z"/>
<path d="M11090 8405 c0 -92 1 -95 23 -94 16 1 18 2 5 6 -15 4 -18 17 -18 88
0 71 3 84 18 88 13 4 11 5 -5 6 -22 1 -23 -2 -23 -94z"/>
<path d="M11323 8493 c14 -4 17 -17 17 -88 0 -71 -3 -84 -17 -88 -14 -4 -12
-5 5 -6 21 -1 22 2 22 94 0 92 -1 95 -22 94 -17 -1 -19 -2 -5 -6z"/>
<path d="M5788 8483 c7 -3 12 -26 12 -63 0 -37 -5 -60 -12 -63 -7 -3 3 -5 22
-5 19 0 29 2 23 5 -7 2 -13 18 -13 35 0 27 3 30 25 26 16 -3 25 -1 25 7 0 8
-9 10 -25 7 -22 -4 -25 -1 -25 22 0 20 5 26 23 26 13 0 28 -5 35 -12 9 -9 12
-9 12 0 0 7 5 12 10 12 15 0 13 -117 -2 -124 -7 -3 14 -4 46 -3 43 1 61 6 64
17 4 13 3 13 -11 2 -27 -23 -62 -11 -65 22 -3 27 -2 28 27 24 19 -3 31 0 31 7
0 7 -11 10 -30 7 -27 -4 -30 -2 -30 23 0 25 3 27 35 23 19 -2 35 0 35 4 0 4
-51 8 -112 7 -62 0 -107 -3 -100 -6z"/>
<path d="M6028 8483 c7 -3 12 -26 12 -63 0 -37 -5 -60 -12 -63 -7 -3 1 -5 17
-5 17 0 24 2 18 5 -8 3 -13 24 -12 56 l1 52 28 -60 28 -60 25 55 25 55 1 -47
c1 -28 -4 -48 -11 -51 -7 -3 3 -5 22 -5 19 0 29 2 23 5 -8 3 -13 26 -13 63 0
37 5 60 13 63 6 3 3 6 -8 6 -15 1 -28 -13 -47 -51 l-26 -53 -24 52 c-19 44
-27 52 -48 52 -14 0 -19 -3 -12 -6z"/>
<path d="M6218 8483 c7 -3 12 -26 12 -63 0 -37 -5 -60 -12 -64 -7 -3 14 -4 46
-3 43 1 61 6 64 17 4 13 3 13 -11 2 -27 -23 -62 -11 -65 22 -3 27 -2 28 27 24
19 -3 31 0 31 7 0 7 -11 10 -30 7 -27 -4 -30 -2 -30 23 0 25 3 27 35 23 19 -2
35 0 35 4 0 4 -26 8 -57 7 -32 0 -52 -3 -45 -6z"/>
<path d="M6348 8483 c7 -3 12 -26 12 -63 0 -37 -5 -60 -12 -63 -7 -3 0 -6 17
-6 22 -1 26 2 17 11 -13 13 -17 88 -4 88 4 -1 25 -24 47 -53 l40 -52 3 65 c2
36 8 68 15 72 7 5 0 8 -18 8 -20 0 -26 -3 -17 -9 9 -5 12 -23 10 -51 l-3 -44
-40 52 c-25 34 -46 52 -60 51 -11 0 -14 -3 -7 -6z"/>
<path d="M6508 8478 c7 -7 12 -33 12 -58 0 -25 -5 -51 -12 -58 -9 -9 -6 -12
16 -12 23 0 26 2 17 14 -7 8 -11 36 -9 63 3 41 6 48 26 51 21 3 22 0 22 -56 0
-39 -4 -62 -12 -65 -7 -3 0 -6 17 -6 22 -1 26 2 17 11 -13 13 -17 88 -4 88 4
-1 25 -24 47 -53 l40 -52 3 65 c2 36 8 68 15 72 7 5 0 8 -18 8 -20 0 -26 -3
-17 -9 9 -5 12 -23 10 -51 l-3 -44 -40 52 c-38 50 -41 52 -89 52 -39 0 -47 -3
-38 -12z"/>
<path d="M6740 8470 c-41 -41 -12 -120 45 -120 14 0 34 9 45 20 41 41 12 120
-45 120 -14 0 -34 -9 -45 -20z m84 -22 c13 -37 -3 -82 -30 -86 -44 -6 -69 52
-43 99 16 30 61 22 73 -13z"/>
<path d="M7478 8483 c7 -3 12 -26 12 -63 0 -37 -5 -60 -12 -63 -7 -3 1 -5 17
-5 17 0 24 2 18 5 -8 3 -13 24 -12 56 l1 52 28 -60 28 -60 25 55 25 55 1 -47
c1 -28 -4 -48 -11 -51 -7 -3 14 -6 47 -6 34 0 55 3 47 7 -21 14 -3 42 28 42
31 0 49 -28 28 -42 -8 -5 -1 -8 20 -8 29 0 32 2 19 14 -8 8 -24 40 -37 71 -15
37 -26 52 -31 44 -4 -7 -1 -22 7 -33 20 -29 18 -38 -8 -34 -16 2 -28 -5 -40
-24 -30 -48 -48 -36 -48 31 0 38 4 61 13 64 6 3 3 6 -8 6 -15 1 -28 -13 -47
-51 l-26 -53 -24 52 c-19 44 -27 52 -48 52 -14 0 -19 -3 -12 -6z"/>
<path d="M7821 8476 c-16 -20 -4 -42 36 -66 19 -11 33 -26 30 -33 -6 -19 -37
-20 -58 -1 -16 15 -19 15 -19 2 0 -14 27 -28 57 -28 19 0 43 29 37 45 -3 8
-21 24 -40 36 -19 11 -34 25 -34 30 0 19 31 21 50 4 19 -17 20 -17 20 1 0 14
-8 20 -34 21 -19 2 -39 -3 -45 -11z"/>
<path d="M7952 8470 c-28 -26 -29 -73 -2 -100 21 -21 64 -27 74 -11 4 5 -3 7
-14 4 -26 -7 -60 23 -60 51 0 28 27 66 47 66 9 0 25 -7 35 -17 17 -15 18 -15
18 3 0 29 -69 31 -98 4z"/>
<path d="M8068 8483 c7 -3 12 -24 12 -53 0 -54 18 -80 55 -80 38 0 55 26 55
81 0 37 4 49 15 49 20 0 22 -115 3 -124 -7 -3 14 -4 46 -3 43 1 61 6 64 17 4
13 3 13 -11 2 -9 -8 -26 -12 -39 -10 -20 3 -23 10 -26 53 -3 38 1 52 14 62 15
11 9 13 -42 13 -35 0 -54 -4 -46 -9 20 -12 12 -101 -10 -115 -13 -8 -23 -8
-35 0 -23 14 -31 103 -11 115 8 6 0 8 -22 8 -19 0 -29 -3 -22 -6z"/>
<path d="M8348 8478 c7 -7 12 -33 12 -58 0 -25 -5 -51 -12 -58 -9 -9 -6 -12
16 -12 23 0 26 2 17 14 -7 8 -11 36 -9 63 3 41 6 48 26 51 21 3 22 0 22 -56 0
-39 -4 -62 -12 -65 -7 -3 0 -6 17 -6 22 -1 26 2 17 11 -13 13 -17 88 -4 88 4
-1 25 -24 47 -53 l40 -52 3 65 c2 36 8 68 15 72 7 5 0 8 -18 8 -20 0 -26 -3
-17 -9 9 -5 12 -23 10 -51 l-3 -44 -40 52 c-38 50 -41 52 -89 52 -39 0 -47 -3
-38 -12z"/>
<path d="M8580 8470 c-41 -41 -12 -120 45 -120 14 0 34 9 45 20 41 41 12 120
-45 120 -14 0 -34 -9 -45 -20z m84 -22 c13 -37 -3 -82 -30 -86 -44 -6 -69 52
-43 99 16 30 61 22 73 -13z"/>
<path d="M9340 8470 c-41 -41 -12 -120 45 -120 14 0 34 9 45 20 41 41 12 120
-45 120 -14 0 -34 -9 -45 -20z m84 -22 c13 -37 -3 -82 -30 -86 -44 -6 -69 52
-43 99 16 30 61 22 73 -13z"/>
<path d="M9460 8481 c0 -5 9 -7 20 -4 18 5 20 0 20 -55 0 -39 -4 -62 -12 -65
-7 -3 3 -6 22 -6 26 -1 31 2 22 11 -7 7 -12 36 -12 66 0 53 1 54 25 50 14 -3
25 -1 25 3 0 5 -25 9 -55 9 -30 0 -55 -4 -55 -9z"/>
<path d="M9588 8484 c7 -4 12 -27 12 -64 0 -37 -5 -60 -12 -63 -7 -3 3 -6 22
-6 26 -1 31 2 22 11 -14 14 -16 58 -3 58 5 0 19 -16 31 -35 20 -32 26 -35 68
-35 28 0 42 4 34 8 -21 14 -3 42 28 42 31 0 49 -28 28 -42 -8 -5 -1 -8 20 -8
29 0 32 2 19 14 -8 8 -24 40 -37 71 -15 37 -26 52 -31 44 -4 -7 -1 -22 7 -33
20 -29 18 -38 -8 -34 -16 2 -28 -5 -40 -24 -23 -36 -41 -35 -68 3 -22 29 -22
31 -4 44 32 24 6 50 -52 52 -27 1 -43 0 -36 -3z m79 -20 c6 -16 -12 -34 -34
-34 -7 0 -13 11 -13 25 0 18 5 25 20 25 11 0 23 -7 27 -16z"/>
<path d="M9938 8478 c7 -7 12 -33 12 -58 0 -25 -5 -51 -12 -58 -9 -9 -6 -12
17 -12 23 0 26 3 17 12 -7 7 -12 33 -12 58 0 25 5 51 12 58 9 9 6 12 -17 12
-23 0 -26 -3 -17 -12z"/>
<path d="M9998 8483 c7 -3 12 -26 12 -63 0 -37 -5 -60 -12 -63 -7 -3 11 -6 40
-6 64 -1 92 21 92 73 0 46 -29 66 -95 65 -27 0 -44 -3 -37 -6z m94 -20 c37
-33 11 -103 -39 -103 -22 0 -23 4 -23 60 0 55 2 60 22 60 12 0 30 -7 40 -17z"/>
<path d="M10221 8476 c-16 -20 -4 -42 36 -66 19 -11 33 -26 30 -33 -6 -19 -37
-20 -58 -1 -16 15 -19 15 -19 2 0 -14 27 -28 57 -28 19 0 43 29 37 45 -3 8
-21 24 -40 36 -19 11 -34 25 -34 30 0 19 31 21 50 4 19 -17 20 -17 20 1 0 14
-8 20 -34 21 -19 2 -39 -3 -45 -11z"/>
<path d="M10318 8483 c7 -3 12 -26 12 -63 0 -37 -5 -60 -12 -64 -7 -3 14 -4
46 -3 43 1 61 6 64 17 4 13 3 13 -11 2 -27 -23 -62 -11 -65 22 -3 27 -2 28 27
24 19 -3 31 0 31 7 0 7 -11 10 -30 7 -27 -4 -30 -2 -30 23 0 25 3 27 35 23 19
-2 35 0 35 4 0 4 -26 8 -57 7 -32 0 -52 -3 -45 -6z"/>
<path d="M10458 8475 c30 -21 85 -103 77 -115 -4 -6 6 -10 23 -10 l30 0 -29
31 c-35 38 -36 49 -6 77 40 38 57 29 57 -27 0 -55 17 -81 55 -81 37 0 55 26
55 80 0 29 5 50 13 53 6 3 -1 6 -18 6 -20 0 -25 -2 -17 -8 20 -12 12 -101 -10
-115 -13 -8 -23 -8 -35 0 -23 14 -31 103 -11 115 8 5 -10 9 -44 9 -44 0 -56
-3 -52 -13 3 -8 -2 -20 -11 -27 -14 -12 -18 -11 -26 1 -5 8 -7 20 -4 27 3 8
-7 12 -33 12 -36 0 -36 0 -14 -15z"/>
<path d="M10808 8479 c-3 -8 0 -23 8 -34 20 -27 17 -38 -9 -33 -16 3 -28 -4
-44 -29 l-22 -33 27 0 c18 0 23 3 14 8 -21 14 -3 42 28 42 31 0 49 -28 28 -42
-7 -5 26 -7 76 -6 69 2 91 6 94 18 4 13 3 13 -11 2 -9 -8 -26 -12 -39 -10 -20
3 -23 10 -26 53 -3 38 1 52 14 62 16 11 13 13 -22 12 -21 0 -33 -3 -26 -6 8
-3 12 -26 12 -64 0 -51 -3 -59 -19 -59 -13 0 -26 19 -48 67 -18 43 -31 62 -35
52z"/>
<path d="M10472 8380 l-32 -30 25 0 c16 0 24 4 20 11 -4 5 1 19 11 30 25 28
14 23 -24 -11z"/>
<path d="M10160 8360 c0 -5 5 -10 10 -10 6 0 10 5 10 10 0 6 -4 10 -10 10 -5
0 -10 -4 -10 -10z"/>
<path d="M6143 7669 c13 -8 17 -24 17 -74 0 -50 -4 -66 -17 -75 -14 -8 -2 -10
51 -7 57 3 72 7 87 26 27 33 24 86 -6 116 -20 21 -33 25 -87 25 -48 -1 -59 -3
-45 -11z m97 -15 c8 -8 13 -35 13 -59 0 -45 -15 -75 -39 -75 -11 0 -14 18 -14
75 0 78 11 95 40 59z"/>
<path d="M6323 7669 c13 -8 17 -24 17 -74 0 -50 -4 -66 -17 -74 -13 -8 2 -10
60 -11 71 0 77 2 77 21 0 19 -1 19 -16 5 -8 -9 -26 -16 -40 -16 -21 0 -24 5
-24 35 0 40 16 46 30 13 7 -18 9 -13 9 27 0 40 -2 45 -9 28 -14 -34 -30 -28
-30 12 0 30 3 35 25 35 13 0 29 -8 34 -17 9 -16 10 -16 11 5 0 21 -4 22 -72
22 -55 -1 -69 -3 -55 -11z"/>
<path d="M6483 7670 c13 -9 17 -25 17 -75 0 -50 -4 -66 -17 -74 -15 -8 -11
-10 17 -10 19 0 29 3 23 6 -9 3 -13 26 -13 66 l1 62 33 -70 32 -70 11 30 c6
17 14 39 18 50 6 19 6 19 -6 1 -11 -17 -14 -14 -33 35 -21 52 -24 54 -62 57
-31 2 -35 0 -21 -8z"/>
<path d="M6621 7649 c-15 -43 -13 -49 4 -19 14 24 14 22 15 -37 0 -49 -4 -64
-17 -72 -14 -8 -7 -10 32 -10 28 0 44 3 38 6 -9 3 -13 29 -13 78 0 49 4 75 13
78 6 3 -4 6 -25 6 -32 1 -37 -3 -47 -30z"/>
<path d="M6904 7667 c14 -10 16 -25 14 -77 -3 -57 -5 -65 -23 -65 -15 0 -29
18 -54 73 -19 39 -38 72 -42 72 -4 0 -12 -13 -17 -30 -8 -20 -8 -29 0 -27 5 1
14 -8 19 -20 7 -20 5 -23 -16 -23 -19 0 -23 4 -19 18 3 9 -2 4 -12 -13 -9 -16
-23 -38 -32 -47 -14 -17 -13 -18 19 -17 19 0 28 3 22 6 -7 2 -13 13 -13 24 0
28 65 27 73 -1 3 -10 0 -21 -7 -24 -6 -2 23 -5 64 -5 43 0 69 3 62 8 -9 5 -12
26 -10 65 l3 56 53 -66 52 -67 0 74 c0 45 5 80 12 87 9 9 5 12 -17 12 -20 0
-26 -3 -17 -9 8 -5 12 -22 10 -46 l-3 -39 -35 47 c-30 39 -40 46 -69 47 -31 0
-33 -2 -17 -13z"/>
<path d="M7083 7669 c13 -8 17 -24 17 -74 0 -50 -4 -66 -17 -75 -14 -8 -2 -10
51 -7 57 3 72 7 87 26 27 33 24 86 -6 116 -20 21 -33 25 -87 25 -48 -1 -59 -3
-45 -11z m97 -15 c8 -8 13 -35 13 -59 0 -45 -15 -75 -39 -75 -11 0 -14 18 -14
75 0 78 11 95 40 59z"/>
<path d="M7444 7667 c14 -10 16 -25 14 -77 -3 -57 -5 -65 -23 -65 -15 0 -29
18 -54 73 -19 39 -38 72 -42 72 -4 0 -12 -13 -17 -30 -8 -20 -8 -29 0 -27 5 1
14 -8 19 -20 7 -20 5 -23 -16 -23 -19 0 -23 4 -19 18 3 9 -2 4 -12 -13 -9 -16
-23 -38 -32 -47 -14 -17 -13 -18 19 -17 19 0 28 3 22 6 -7 2 -13 13 -13 24 0
28 65 27 73 -1 3 -10 0 -21 -7 -24 -6 -3 38 -4 97 -3 101 2 110 4 128 26 27
33 25 86 -6 116 -20 21 -34 25 -86 25 -53 0 -60 -2 -45 -13z m96 -13 c8 -8 13
-35 13 -59 0 -45 -15 -75 -39 -75 -11 0 -14 18 -14 75 0 78 11 95 40 59z"/>
<path d="M7645 7655 c-77 -76 38 -193 120 -122 21 17 27 32 27 62 0 76 -93
115 -147 60z m95 -4 c5 -11 10 -36 10 -56 0 -67 -38 -98 -71 -58 -17 20 -17
97 1 118 17 21 47 19 60 -4z"/>
<path d="M5330 6839 c0 -5 5 -7 10 -4 6 3 10 8 10 11 0 2 -4 4 -10 4 -5 0 -10
-5 -10 -11z"/>
<path d="M2428 6799 c-3 -8 0 -23 8 -34 20 -27 17 -38 -9 -33 -16 3 -28 -4
-44 -29 l-22 -33 27 0 c18 0 23 3 14 8 -21 14 -3 42 28 42 31 0 49 -28 28 -42
-8 -4 14 -8 52 -8 50 0 61 3 52 12 -21 21 -14 46 14 50 35 4 53 31 38 56 -8
12 -26 18 -60 19 -27 1 -43 0 -36 -3 7 -4 12 -27 12 -65 0 -51 -3 -59 -19 -59
-13 0 -26 19 -48 67 -18 43 -31 62 -35 52z m162 -14 c10 -12 10 -18 0 -30 -21
-25 -40 -18 -40 15 0 33 19 40 40 15z"/>
<path d="M2638 6803 c7 -3 12 -26 12 -63 0 -37 -5 -60 -12 -64 -7 -3 14 -4 46
-3 43 1 61 6 64 17 4 13 3 13 -11 2 -27 -23 -62 -11 -65 22 -3 27 -2 28 27 24
19 -3 31 0 31 7 0 7 -11 10 -30 7 -27 -4 -30 -2 -30 23 0 25 3 27 35 23 19 -2
35 0 35 4 0 4 -26 8 -57 7 -32 0 -52 -3 -45 -6z"/>
<path d="M2768 6803 c7 -3 12 -26 12 -63 0 -37 -5 -60 -12 -63 -7 -3 41 -5
106 -4 96 2 120 5 124 17 4 13 3 13 -11 2 -9 -8 -26 -12 -39 -10 -20 3 -23 10
-26 53 -3 38 1 52 14 62 16 11 13 13 -22 12 -21 0 -33 -3 -26 -6 15 -6 17
-123 2 -123 -5 0 -10 5 -10 11 0 8 -4 8 -14 -1 -8 -6 -25 -10 -38 -8 -20 3
-23 10 -26 53 -3 38 1 52 14 62 16 11 13 13 -22 12 -21 0 -33 -3 -26 -6z"/>
<path d="M3028 6798 c16 -16 16 -100 0 -116 -9 -9 -6 -12 17 -12 23 0 26 3 17
12 -16 16 -16 100 0 116 9 9 6 12 -17 12 -23 0 -26 -3 -17 -12z"/>
<path d="M3088 6803 c7 -3 12 -26 12 -63 0 -37 -5 -60 -12 -63 -7 -3 11 -6 40
-6 64 -1 92 21 92 73 0 46 -29 66 -95 65 -27 0 -44 -3 -37 -6z m94 -20 c37
-33 11 -103 -39 -103 -22 0 -23 4 -23 60 0 55 2 60 22 60 12 0 30 -7 40 -17z"/>
<path d="M3260 6790 c-41 -41 -12 -120 45 -120 14 0 34 9 45 20 41 41 12 120
-45 120 -14 0 -34 -9 -45 -20z m84 -22 c13 -37 -3 -82 -30 -86 -44 -6 -69 52
-43 99 16 30 61 22 73 -13z"/>
<path d="M3461 6779 c35 -37 46 -74 29 -94 -11 -13 -8 -15 15 -15 23 0 26 2
15 15 -17 20 -6 57 29 94 l29 31 -24 0 c-15 0 -22 -5 -18 -13 2 -7 -2 -21 -11
-32 -15 -20 -15 -20 -30 0 -9 11 -13 25 -11 32 4 9 -4 13 -23 13 l-29 0 29
-31z"/>
<path d="M3648 6803 c7 -3 12 -26 12 -63 0 -37 -5 -60 -12 -63 -7 -3 0 -6 17
-6 22 -1 26 2 17 11 -13 13 -17 88 -4 88 4 -1 25 -24 47 -53 l40 -52 3 65 c2
36 8 68 15 72 7 5 0 8 -18 8 -20 0 -26 -3 -17 -9 9 -5 12 -23 10 -51 l-3 -44
-40 52 c-25 34 -46 52 -60 51 -11 0 -14 -3 -7 -6z"/>
<path d="M3820 6790 c-41 -41 -12 -120 45 -120 14 0 34 9 45 20 41 41 12 120
-45 120 -14 0 -34 -9 -45 -20z m84 -22 c13 -37 -3 -82 -30 -86 -44 -6 -69 52
-43 99 16 30 61 22 73 -13z"/>
<path d="M3948 6803 c7 -3 12 -26 12 -63 0 -37 -5 -60 -12 -63 -7 -3 1 -5 17
-5 17 0 24 2 18 5 -8 3 -13 24 -12 56 l1 52 28 -60 28 -60 25 55 25 55 1 -47
c1 -28 -4 -48 -11 -51 -7 -3 24 -6 69 -6 62 -1 85 3 97 15 20 19 20 29 2 46
-10 9 -10 17 -3 30 20 31 -8 48 -82 48 l-67 0 -26 -52 -26 -53 -24 52 c-19 44
-27 52 -48 52 -14 0 -19 -3 -12 -6z m192 -63 c0 -53 -2 -60 -20 -60 -18 0 -20
7 -20 60 0 53 2 60 20 60 18 0 20 -7 20 -60z m69 51 c21 -13 5 -41 -24 -41
-20 0 -25 5 -25 25 0 26 22 33 49 16z m6 -81 c0 -20 -6 -26 -27 -28 -25 -3
-28 0 -28 28 0 28 3 31 28 28 21 -2 27 -8 27 -28z"/>
<path d="M4268 6804 c7 -4 12 -27 12 -64 0 -37 -5 -60 -12 -63 -7 -3 3 -6 22
-6 26 -1 31 2 22 11 -14 14 -16 58 -3 58 5 0 19 -16 31 -35 l22 -36 71 3 c52
2 72 7 75 18 4 13 3 13 -11 2 -27 -23 -62 -11 -65 22 -3 27 -2 28 27 24 19 -3
31 0 31 7 0 7 -11 10 -30 7 -27 -4 -30 -2 -30 23 0 25 3 27 35 23 19 -2 35 0
35 4 0 4 -26 8 -57 7 -32 0 -52 -3 -45 -6 8 -3 12 -26 12 -64 0 -69 -15 -77
-50 -28 -22 29 -22 31 -4 44 32 24 6 50 -52 52 -27 1 -43 0 -36 -3z m79 -20
c6 -16 -12 -34 -34 -34 -7 0 -13 11 -13 25 0 18 5 25 20 25 11 0 23 -7 27 -16z"/>
<path d="M4541 6796 c-16 -20 -4 -42 36 -66 19 -11 33 -26 30 -33 -6 -19 -37
-20 -58 -1 -16 15 -19 15 -19 2 0 -14 27 -28 57 -28 19 0 43 29 37 45 -3 8
-21 24 -40 36 -19 11 -34 25 -34 30 0 19 31 21 50 4 19 -17 20 -17 20 1 0 14
-8 20 -34 21 -19 2 -39 -3 -45 -11z"/>
<path d="M4848 6804 c7 -4 12 -27 12 -64 0 -37 -5 -60 -12 -63 -7 -3 3 -6 22
-6 26 -1 31 2 22 11 -14 14 -16 58 -3 58 5 0 19 -16 31 -35 20 -32 26 -35 68
-35 28 0 42 4 34 8 -21 14 -3 42 28 42 31 0 49 -28 28 -42 -7 -4 28 -8 80 -8
80 0 92 2 92 17 0 13 -3 14 -12 5 -7 -7 -27 -12 -46 -12 l-33 0 46 65 47 65
-51 0 c-28 0 -51 -4 -51 -8 0 -4 16 -6 37 -4 l36 5 -43 -62 c-24 -33 -48 -61
-55 -61 -7 0 -25 29 -41 65 -17 41 -30 61 -35 54 -4 -7 -1 -22 7 -33 20 -29
18 -38 -8 -34 -16 2 -28 -5 -40 -24 -23 -36 -41 -35 -68 3 -22 29 -22 31 -4
44 32 24 6 50 -52 52 -27 1 -43 0 -36 -3z m79 -20 c6 -16 -12 -34 -34 -34 -7
0 -13 11 -13 25 0 18 5 25 20 25 11 0 23 -7 27 -16z"/>
<path d="M5290 6790 c-41 -41 -12 -120 45 -120 14 0 34 9 45 20 41 41 12 120
-45 120 -14 0 -34 -9 -45 -20z m84 -22 c13 -37 -3 -82 -30 -86 -44 -6 -69 52
-43 99 16 30 61 22 73 -13z"/>
<path d="M5418 6803 c7 -3 12 -26 12 -63 0 -37 -5 -60 -12 -63 -7 -3 0 -6 17
-6 22 -1 26 2 17 11 -13 13 -17 88 -4 88 4 -1 25 -24 47 -53 l40 -52 3 65 c2
36 8 68 15 72 7 5 0 8 -18 8 -20 0 -26 -3 -17 -9 9 -5 12 -23 10 -51 l-3 -44
-40 52 c-25 34 -46 52 -60 51 -11 0 -14 -3 -7 -6z"/>
<path d="M5641 6796 c-16 -20 -4 -42 36 -66 19 -11 33 -26 30 -33 -6 -19 -37
-20 -58 -1 -16 15 -19 15 -19 2 0 -14 27 -28 57 -28 19 0 43 29 37 45 -3 8
-21 24 -40 36 -19 11 -34 25 -34 30 0 19 31 21 50 4 19 -17 20 -17 20 1 0 14
-8 20 -34 21 -19 2 -39 -3 -45 -11z"/>
<path d="M5760 6790 c-41 -41 -12 -120 45 -120 14 0 34 9 45 20 41 41 12 120
-45 120 -14 0 -34 -9 -45 -20z m84 -22 c13 -37 -3 -82 -30 -86 -44 -6 -69 52
-43 99 16 30 61 22 73 -13z"/>
<path d="M5912 6790 c-28 -26 -29 -73 -2 -100 21 -21 64 -27 74 -11 4 5 -3 7
-14 4 -26 -7 -60 23 -60 51 0 28 27 66 47 66 9 0 25 -7 35 -17 17 -15 18 -15
18 3 0 29 -69 31 -98 4z"/>
<path d="M6038 6798 c7 -7 12 -33 12 -58 0 -25 -5 -51 -12 -58 -9 -9 -6 -12
17 -12 23 0 26 3 17 12 -7 7 -12 33 -12 58 0 25 5 51 12 58 9 9 6 12 -17 12
-23 0 -26 -3 -17 -12z"/>
<path d="M6158 6799 c-3 -8 0 -23 8 -34 20 -27 17 -38 -9 -33 -16 3 -28 -4
-44 -29 l-22 -33 27 0 c18 0 23 3 14 8 -21 14 -3 42 28 42 31 0 49 -28 28 -42
-7 -5 26 -7 76 -6 69 2 91 6 94 18 4 13 3 13 -11 2 -9 -8 -26 -12 -39 -10 -20
3 -23 10 -26 53 -3 38 1 52 14 62 16 11 13 13 -22 12 -21 0 -33 -3 -26 -6 8
-3 12 -26 12 -64 0 -51 -3 -59 -19 -59 -13 0 -26 19 -48 67 -18 43 -31 62 -35
52z"/>
<path d="M4712 6758 c-7 -7 -12 -24 -12 -38 0 -50 47 -68 74 -28 20 28 20 43
0 62 -18 19 -45 21 -62 4z m48 -12 c6 -8 10 -25 8 -38 -4 -32 -42 -32 -46 0
-7 46 14 66 38 38z"/>
<path d="M4883 5989 c13 -8 17 -24 17 -74 0 -50 -4 -66 -17 -75 -14 -8 -2 -10
51 -7 57 3 72 7 87 26 27 33 24 86 -6 116 -20 21 -33 25 -87 25 -48 -1 -59 -3
-45 -11z m97 -15 c8 -8 13 -35 13 -59 0 -45 -15 -75 -39 -75 -11 0 -14 18 -14
75 0 78 11 95 40 59z"/>
<path d="M5063 5989 c13 -8 17 -24 17 -74 0 -50 -4 -66 -17 -74 -13 -8 2 -10
60 -11 71 0 77 2 77 21 0 19 -1 19 -16 5 -8 -9 -26 -16 -40 -16 -21 0 -24 5
-24 35 0 40 16 46 30 13 7 -18 9 -13 9 27 0 40 -2 45 -9 28 -14 -34 -30 -28
-30 12 0 30 3 35 25 35 13 0 29 -8 34 -17 9 -16 10 -16 11 5 0 21 -4 22 -72
22 -55 -1 -69 -3 -55 -11z"/>
<path d="M5238 5993 c8 -3 12 -29 12 -78 0 -49 -4 -75 -12 -78 -7 -3 7 -5 32
-5 25 0 39 2 33 5 -7 2 -13 19 -13 37 0 27 5 33 33 41 23 7 33 17 35 34 5 35
-22 51 -82 50 -28 0 -45 -3 -38 -6z m77 -38 c0 -16 -6 -30 -12 -32 -9 -3 -13
7 -13 32 0 25 4 35 13 33 6 -3 12 -17 12 -33z"/>
<path d="M5383 5989 c13 -8 17 -24 17 -74 0 -50 -4 -66 -17 -74 -13 -8 2 -10
60 -11 71 0 77 2 77 21 0 19 -1 19 -16 5 -8 -9 -26 -16 -40 -16 -21 0 -24 5
-24 35 0 40 16 46 30 13 7 -18 9 -13 9 27 0 40 -2 45 -9 28 -14 -34 -30 -28
-30 12 0 30 3 35 25 35 13 0 29 -8 34 -17 9 -16 10 -16 11 5 0 21 -4 22 -72
22 -55 -1 -69 -3 -55 -11z"/>
<path d="M5543 5989 c13 -8 17 -24 17 -74 0 -50 -4 -66 -17 -74 -15 -9 -12
-10 17 -11 22 0 30 3 22 9 -9 5 -12 26 -10 65 l3 56 53 -66 52 -67 0 74 c0 45
5 80 12 87 9 9 5 12 -17 12 -20 0 -26 -3 -17 -9 8 -5 12 -22 10 -46 l-3 -39
-35 47 c-30 40 -40 46 -70 46 -29 0 -32 -1 -17 -10z"/>
<path d="M5733 5989 c13 -8 17 -24 17 -74 0 -50 -4 -66 -17 -75 -14 -8 -2 -10
51 -7 57 3 72 7 87 26 27 33 24 86 -6 116 -20 21 -33 25 -87 25 -48 -1 -59 -3
-45 -11z m97 -15 c8 -8 13 -35 13 -59 0 -45 -15 -75 -39 -75 -11 0 -14 18 -14
75 0 78 11 95 40 59z"/>
<path d="M5913 5989 c13 -8 17 -24 17 -74 0 -50 -4 -66 -17 -74 -13 -8 2 -10
60 -11 71 0 77 2 77 21 0 19 -1 19 -16 5 -8 -9 -26 -16 -40 -16 -21 0 -24 5
-24 35 0 40 16 46 30 13 7 -18 9 -13 9 27 0 40 -2 45 -9 28 -14 -34 -30 -28
-30 12 0 30 3 35 25 35 13 0 29 -8 34 -17 9 -16 10 -16 11 5 0 21 -4 22 -72
22 -55 -1 -69 -3 -55 -11z"/>
<path d="M6073 5989 c13 -8 17 -24 17 -74 0 -50 -4 -66 -17 -74 -15 -9 -12
-10 17 -11 22 0 30 3 22 9 -9 5 -12 26 -10 65 l3 56 53 -66 52 -67 0 74 c0 45
5 80 12 87 9 9 5 12 -17 12 -20 0 -26 -3 -17 -9 8 -5 12 -22 10 -46 l-3 -39
-35 47 c-30 40 -40 46 -70 46 -29 0 -32 -1 -17 -10z"/>
<path d="M6280 5971 c-46 -45 -38 -100 17 -129 30 -16 65 -15 89 3 18 14 17
14 -8 4 -59 -25 -101 30 -77 101 16 44 55 52 86 16 l23 -27 0 28 c0 27 -3 28
-50 31 -45 2 -54 -1 -80 -27z"/>
<path d="M6443 5989 c13 -8 17 -24 17 -74 0 -50 -4 -66 -17 -74 -13 -8 3 -10
62 -10 44 0 74 3 68 6 -7 2 -13 13 -13 24 0 28 65 27 73 -1 3 -10 0 -21 -7
-24 -6 -2 9 -5 33 -5 41 -1 43 0 28 17 -8 9 -28 45 -43 80 -14 34 -30 62 -34
62 -5 0 -13 -13 -18 -30 -8 -20 -8 -29 0 -27 5 1 14 -8 19 -20 7 -20 5 -23
-16 -23 -19 0 -23 4 -19 18 3 9 -5 -1 -18 -23 -13 -22 -31 -41 -41 -43 -15 -3
-17 6 -17 71 0 51 4 77 13 80 6 3 -10 6 -38 6 -39 0 -46 -2 -32 -10z"/>
<path d="M6783 5989 c13 -8 17 -24 17 -74 0 -50 -4 -66 -17 -75 -14 -8 -2 -10
51 -7 57 3 72 7 87 26 27 33 24 86 -6 116 -20 21 -33 25 -87 25 -48 -1 -59 -3
-45 -11z m97 -15 c8 -8 13 -35 13 -59 0 -45 -15 -75 -39 -75 -11 0 -14 18 -14
75 0 78 11 95 40 59z"/>
<path d="M6963 5989 c13 -8 17 -24 17 -74 0 -50 -4 -66 -17 -74 -13 -8 2 -10
60 -11 71 0 77 2 77 21 0 19 -1 19 -16 5 -8 -9 -26 -16 -40 -16 -21 0 -24 5
-24 35 0 40 16 46 30 13 7 -18 9 -13 9 27 0 40 -2 45 -9 28 -14 -34 -30 -28
-30 12 0 30 3 35 25 35 13 0 29 -8 34 -17 9 -16 10 -16 11 5 0 21 -4 22 -72
22 -55 -1 -69 -3 -55 -11z"/>
<path d="M7215 5975 c-77 -76 38 -193 120 -122 21 17 27 32 27 62 0 76 -93
115 -147 60z m95 -4 c5 -11 10 -36 10 -56 0 -67 -38 -98 -71 -58 -17 20 -17
97 1 118 17 21 47 19 60 -4z"/>
<path d="M7383 5989 c13 -8 17 -24 17 -74 0 -50 -4 -66 -17 -74 -14 -8 -7 -10
32 -11 31 0 45 4 37 9 -8 5 -12 22 -10 42 l3 33 28 -42 27 -42 73 1 c39 0 66
3 60 6 -9 3 -13 29 -13 78 0 49 4 75 13 78 6 3 -10 6 -37 6 -43 1 -47 -1 -32
-12 24 -18 20 -140 -6 -145 -18 -4 -75 71 -58 76 6 2 15 13 21 24 8 15 7 24
-7 39 -14 15 -31 19 -83 19 -50 -1 -62 -3 -48 -11z m100 -21 c8 -12 7 -21 -2
-32 -23 -28 -41 -19 -41 20 0 28 4 35 16 32 9 -2 22 -10 27 -20z"/>
<path d="M7690 5971 c-18 -18 -30 -40 -30 -56 0 -36 50 -85 87 -85 46 0 73 11
73 29 0 9 5 22 12 29 9 9 2 12 -32 11 -25 0 -39 -3 -32 -6 6 -2 12 -16 12 -29
0 -19 -5 -24 -24 -24 -41 0 -65 56 -45 107 18 47 55 57 89 23 l20 -20 0 23 c0
19 -6 22 -50 25 -45 3 -54 0 -80 -27z"/>
<path d="M7853 5989 c13 -8 17 -24 17 -74 0 -50 -4 -66 -17 -74 -13 -8 2 -10
60 -11 71 0 77 2 77 21 0 19 -1 19 -16 5 -8 -9 -26 -16 -40 -16 -21 0 -24 5
-24 35 0 40 16 46 30 13 7 -18 9 -13 9 27 0 40 -2 45 -9 28 -14 -34 -30 -28
-30 12 0 30 3 35 25 35 13 0 29 -8 34 -17 9 -16 10 -16 11 5 0 21 -4 22 -72
22 -55 -1 -69 -3 -55 -11z"/>
<path d="M8023 5989 c13 -8 17 -24 17 -74 0 -50 -4 -66 -17 -74 -15 -9 -12
-10 17 -11 22 0 30 3 22 9 -9 5 -12 26 -10 65 l3 56 53 -66 52 -67 0 74 c0 45
5 80 12 87 9 9 5 12 -17 12 -20 0 -26 -3 -17 -9 8 -5 12 -22 10 -46 l-3 -39
-35 47 c-30 40 -40 46 -70 46 -29 0 -32 -1 -17 -10z"/>
<path d="M8353 5989 c13 -8 17 -24 17 -74 0 -50 -4 -66 -17 -74 -13 -8 16 -10
105 -11 117 0 122 1 122 21 0 19 -1 19 -16 5 -8 -9 -26 -16 -40 -16 -21 0 -24
5 -24 35 0 40 16 46 30 13 7 -18 9 -13 9 27 0 40 -2 45 -9 28 -14 -34 -30 -28
-30 12 0 30 3 35 25 35 13 0 29 -8 34 -17 9 -16 10 -16 11 5 0 22 -2 22 -117
22 -85 -1 -113 -3 -100 -11z m102 -74 c0 -65 -2 -70 -22 -73 -22 -3 -23 -1
-23 73 0 74 1 76 23 73 20 -3 22 -8 22 -73z"/>
<path d="M8613 5989 c13 -8 17 -24 17 -74 0 -50 -4 -66 -17 -74 -14 -8 -7 -10
32 -11 31 0 45 4 37 9 -8 5 -12 22 -10 42 l3 33 28 -42 27 -42 73 1 c39 0 66
3 60 6 -9 3 -13 29 -13 78 0 49 4 75 13 78 6 3 -10 6 -37 6 -43 1 -47 -1 -32
-12 24 -18 20 -140 -6 -145 -18 -4 -75 71 -58 76 6 2 15 13 21 24 8 15 7 24
-7 39 -14 15 -31 19 -83 19 -50 -1 -62 -3 -48 -11z m100 -21 c8 -12 7 -21 -2
-32 -23 -28 -41 -19 -41 20 0 28 4 35 16 32 9 -2 22 -10 27 -20z"/>
<path d="M8910 5971 c-46 -45 -38 -100 17 -129 30 -16 65 -15 89 3 18 14 17
14 -8 4 -59 -25 -101 30 -77 101 16 44 55 52 86 16 l23 -27 0 28 c0 27 -3 28
-50 31 -45 2 -54 -1 -80 -27z"/>
<path d="M8214 5939 c-10 -17 13 -36 27 -22 12 12 4 33 -11 33 -5 0 -12 -5
-16 -11z"/>
<path d="M8214 5859 c-10 -17 13 -36 27 -22 12 12 4 33 -11 33 -5 0 -12 -5
-16 -11z"/>
<path d="M2570 4809 c0 -5 5 -7 10 -4 6 3 10 8 10 11 0 2 -4 4 -10 4 -5 0 -10
-5 -10 -11z"/>
<path d="M2392 4760 c-28 -26 -29 -73 -2 -100 21 -21 64 -27 74 -11 4 5 -3 7
-14 4 -26 -7 -60 23 -60 51 0 28 27 66 47 66 9 0 25 -7 35 -17 17 -15 18 -15
18 3 0 29 -69 31 -98 4z"/>
<path d="M2530 4760 c-41 -41 -12 -120 45 -120 14 0 34 9 45 20 41 41 12 120
-45 120 -14 0 -34 -9 -45 -20z m84 -22 c13 -37 -3 -82 -30 -86 -44 -6 -69 52
-43 99 16 30 61 22 73 -13z"/>
<path d="M2658 4773 c7 -3 12 -26 12 -63 0 -37 -5 -60 -12 -63 -7 -3 11 -6 40
-6 64 -1 92 21 92 73 0 46 -29 66 -95 65 -27 0 -44 -3 -37 -6z m94 -20 c37
-33 11 -103 -39 -103 -22 0 -23 4 -23 60 0 55 2 60 22 60 12 0 30 -7 40 -17z"/>
<path d="M2818 4768 c16 -16 16 -100 0 -116 -9 -9 -6 -12 17 -12 23 0 26 3 17
12 -16 16 -16 100 0 116 9 9 6 12 -17 12 -23 0 -26 -3 -17 -12z"/>
<path d="M2902 4757 c-55 -59 5 -140 82 -111 9 4 16 18 16 34 0 16 6 31 13 33
6 3 -4 5 -23 5 -19 0 -29 -2 -22 -5 6 -2 12 -18 12 -34 0 -24 -4 -29 -24 -29
-28 0 -56 33 -56 66 0 42 60 70 88 42 9 -9 12 -9 12 3 0 10 -12 16 -38 17 -29
2 -43 -3 -60 -21z"/>
<path d="M3050 4760 c-41 -41 -12 -120 45 -120 14 0 34 9 45 20 41 41 12 120
-45 120 -14 0 -34 -9 -45 -20z m84 -22 c13 -37 -3 -82 -30 -86 -44 -6 -69 52
-43 99 16 30 61 22 73 -13z"/>
<path d="M3238 4773 c7 -3 12 -26 12 -63 0 -37 -5 -60 -12 -63 -7 -3 11 -6 40
-6 64 -1 92 21 92 73 0 46 -29 66 -95 65 -27 0 -44 -3 -37 -6z m94 -20 c37
-33 11 -103 -39 -103 -22 0 -23 4 -23 60 0 55 2 60 22 60 12 0 30 -7 40 -17z"/>
<path d="M3388 4773 c7 -3 12 -26 12 -63 0 -37 -5 -60 -12 -64 -7 -3 14 -4 46
-3 43 1 61 6 64 17 4 13 3 13 -11 2 -27 -23 -62 -11 -65 22 -3 27 -2 28 27 24
19 -3 31 0 31 7 0 7 -11 10 -30 7 -27 -4 -30 -2 -30 23 0 25 3 27 35 23 19 -2
35 0 35 4 0 4 -26 8 -57 7 -32 0 -52 -3 -45 -6z"/>
<path d="M3590 4760 c-41 -41 -12 -120 45 -120 14 0 34 9 45 20 41 41 12 120
-45 120 -14 0 -34 -9 -45 -20z m84 -22 c13 -37 -3 -82 -30 -86 -44 -6 -69 52
-43 99 16 30 61 22 73 -13z"/>
<path d="M3718 4773 c7 -3 12 -26 12 -63 0 -37 -5 -60 -12 -63 -7 -3 10 -6 39
-6 68 -1 103 29 69 61 -10 9 -10 17 -3 30 19 29 -8 48 -67 47 -28 0 -45 -3
-38 -6z m81 -12 c21 -13 5 -41 -24 -41 -20 0 -25 5 -25 25 0 26 22 33 49 16z
m6 -81 c0 -20 -6 -26 -27 -28 -25 -3 -28 0 -28 28 0 28 3 31 28 28 21 -2 27
-8 27 -28z"/>
<path d="M3868 4773 c8 -3 12 -26 12 -65 0 -53 -2 -59 -15 -48 -12 10 -15 10
-15 -4 0 -9 6 -16 13 -16 25 0 37 25 37 77 0 46 3 53 20 53 18 0 20 -7 20 -59
0 -38 -5 -61 -12 -65 -7 -3 14 -4 46 -3 43 1 61 6 64 17 4 13 3 13 -11 2 -27
-23 -62 -11 -65 22 -3 27 -2 28 27 24 19 -3 31 0 31 7 0 7 -11 10 -30 7 -27
-4 -30 -2 -30 23 0 25 3 27 35 23 19 -2 35 0 35 4 0 4 -39 8 -87 7 -49 0 -82
-3 -75 -6z"/>
<path d="M4060 4771 c0 -5 9 -7 20 -4 18 5 20 0 20 -55 0 -39 -4 -62 -12 -65
-7 -3 3 -6 22 -6 26 -1 31 2 22 11 -7 7 -12 36 -12 66 0 53 1 54 25 50 14 -3
25 -1 25 3 0 5 -25 9 -55 9 -30 0 -55 -4 -55 -9z"/>
<path d="M4210 4760 c-41 -41 -12 -120 45 -120 14 0 34 9 45 20 41 41 12 120
-45 120 -14 0 -34 -9 -45 -20z m84 -22 c13 -37 -3 -82 -30 -86 -44 -6 -69 52
-43 99 16 30 61 22 73 -13z"/>
<path d="M4460 4765 c-11 -14 -11 -20 -1 -37 9 -15 10 -23 2 -31 -25 -25 -6
-57 34 -57 22 0 47 31 39 49 -4 9 -7 32 -8 51 -1 30 -5 35 -27 38 -15 2 -31
-4 -39 -13z m48 -19 c3 -12 -1 -17 -10 -14 -7 3 -15 13 -16 22 -3 12 1 17 10
14 7 -3 15 -13 16 -22z m-4 -63 c9 -22 -10 -41 -25 -26 -13 13 -5 43 10 43 5
0 12 -8 15 -17z"/>
<path d="M4571 4766 c-10 -12 -8 -13 8 -9 41 11 38 -35 -5 -94 -16 -23 -16
-23 25 -23 30 0 41 4 41 15 0 9 -10 15 -26 15 l-26 0 26 31 c29 34 32 49 14
67 -16 16 -43 15 -57 -2z"/>
<path d="M4350 4730 c0 -5 5 -10 10 -10 6 0 10 5 10 10 0 6 -4 10 -10 10 -5 0
-10 -4 -10 -10z"/>
<path d="M4350 4650 c0 -5 5 -10 10 -10 6 0 10 5 10 10 0 6 -4 10 -10 10 -5 0
-10 -4 -10 -10z"/>
<path d="M8220 4809 c0 -5 5 -7 10 -4 6 3 10 8 10 11 0 2 -4 4 -10 4 -5 0 -10
-5 -10 -11z"/>
<path d="M7088 4773 c7 -3 12 -26 12 -63 0 -37 -5 -60 -12 -63 -7 -3 11 -6 40
-6 64 -1 92 21 92 73 0 46 -29 66 -95 65 -27 0 -44 -3 -37 -6z m94 -20 c37
-33 11 -103 -39 -103 -22 0 -23 4 -23 60 0 55 2 60 22 60 12 0 30 -7 40 -17z"/>
<path d="M7238 4773 c7 -3 12 -26 12 -63 0 -37 -5 -60 -12 -64 -7 -3 14 -4 46
-3 43 1 61 6 64 17 4 13 3 13 -11 2 -27 -23 -62 -11 -65 22 -3 27 -2 28 27 24
19 -3 31 0 31 7 0 7 -11 10 -30 7 -27 -4 -30 -2 -30 23 0 25 3 27 35 23 19 -2
35 0 35 4 0 4 -26 8 -57 7 -32 0 -52 -3 -45 -6z"/>
<path d="M7381 4766 c-16 -20 -4 -42 36 -66 19 -11 33 -26 30 -33 -6 -19 -37
-20 -58 -1 -16 15 -19 15 -19 2 0 -14 27 -28 57 -28 19 0 43 29 37 45 -3 8
-21 24 -40 36 -19 11 -34 25 -34 30 0 19 31 21 50 4 19 -17 20 -17 20 1 0 14
-8 20 -34 21 -19 2 -39 -3 -45 -11z"/>
<path d="M7512 4760 c-28 -26 -29 -73 -2 -100 21 -21 64 -27 74 -11 4 5 -3 7
-14 4 -26 -7 -60 23 -60 51 0 28 27 66 47 66 9 0 25 -7 35 -17 17 -15 18 -15
18 3 0 29 -69 31 -98 4z"/>
<path d="M7628 4774 c7 -4 12 -27 12 -64 0 -37 -5 -60 -12 -63 -7 -3 3 -6 22
-6 26 -1 31 2 22 11 -14 14 -16 58 -3 58 5 0 19 -16 31 -35 20 -32 26 -35 68
-35 36 0 43 3 34 12 -7 7 -12 33 -12 58 0 25 5 51 12 58 9 9 6 12 -16 12 -23
0 -26 -2 -17 -14 7 -8 11 -36 9 -63 -4 -59 -26 -68 -58 -23 -21 30 -22 32 -4
45 32 24 6 50 -52 52 -27 1 -43 0 -36 -3z m79 -20 c6 -16 -12 -34 -34 -34 -7
0 -13 11 -13 25 0 18 5 25 20 25 11 0 23 -7 27 -16z"/>
<path d="M7828 4774 c7 -4 12 -27 12 -64 0 -37 -5 -60 -12 -63 -7 -3 3 -6 22
-6 26 -1 31 2 22 11 -21 21 -14 46 14 50 35 4 53 31 38 56 -8 12 -26 18 -60
19 -27 1 -43 0 -36 -3z m72 -19 c10 -12 10 -18 0 -30 -21 -25 -40 -18 -40 15
0 33 19 40 40 15z"/>
<path d="M7972 4760 c-28 -26 -29 -73 -2 -100 21 -21 64 -27 74 -11 4 5 -3 7
-14 4 -26 -7 -60 23 -60 51 0 28 27 66 47 66 9 0 25 -7 35 -17 17 -15 18 -15
18 3 0 29 -69 31 -98 4z"/>
<path d="M8098 4768 c7 -7 12 -33 12 -58 0 -25 -5 -51 -12 -58 -9 -9 -6 -12
17 -12 23 0 26 3 17 12 -7 7 -12 33 -12 58 0 25 5 51 12 58 9 9 6 12 -17 12
-23 0 -26 -3 -17 -12z"/>
<path d="M8180 4760 c-41 -41 -12 -120 45 -120 14 0 34 9 45 20 41 41 12 120
-45 120 -14 0 -34 -9 -45 -20z m84 -22 c13 -37 -3 -82 -30 -86 -44 -6 -69 52
-43 99 16 30 61 22 73 -13z"/>
<path d="M8308 4773 c7 -3 12 -26 12 -63 0 -37 -5 -60 -12 -63 -7 -3 0 -6 17
-6 22 -1 26 2 17 11 -13 13 -17 88 -4 88 4 -1 25 -24 47 -53 l40 -52 3 65 c2
36 8 68 15 72 7 5 0 8 -18 8 -20 0 -26 -3 -17 -9 9 -5 12 -23 10 -51 l-3 -44
-40 52 c-25 34 -46 52 -60 51 -11 0 -14 -3 -7 -6z"/>
<path d="M8580 4765 c-17 -21 -4 -51 30 -65 18 -8 30 -20 30 -31 0 -27 -35
-24 -54 3 l-16 22 0 -24 c0 -21 5 -25 31 -27 36 -3 69 12 69 30 0 7 -19 29
-42 49 -38 32 -41 37 -24 44 14 5 24 1 38 -15 17 -22 18 -22 18 -3 0 12 -9 22
-22 26 -34 9 -44 7 -58 -9z"/>
<path d="M8688 4773 c7 -3 12 -24 12 -53 0 -54 18 -80 55 -80 38 0 55 26 55
81 0 42 3 49 20 49 18 0 20 -7 20 -59 0 -38 -4 -61 -12 -64 -7 -3 1 -5 17 -5
17 0 24 2 18 5 -8 3 -13 24 -12 56 l1 52 27 -59 c26 -58 27 -58 38 -33 7 14 9
27 4 29 -4 2 -14 21 -23 43 -16 40 -16 40 -74 42 -33 1 -53 0 -46 -3 18 -8 16
-98 -3 -114 -8 -7 -22 -10 -30 -6 -19 7 -22 112 -2 119 6 3 -8 5 -33 5 -25 0
-39 -2 -32 -5z"/>
<path d="M8960 4761 c-13 -25 -13 -41 0 -21 7 11 10 0 10 -37 0 -32 -5 -53
-12 -56 -7 -3 5 -6 27 -6 30 -1 36 2 27 11 -7 7 -12 33 -12 58 0 25 5 51 12
58 9 9 6 12 -15 12 -16 0 -30 -8 -37 -19z"/>
<path d="M9097 4767 c-4 -10 -2 -29 3 -43 13 -34 13 -34 -12 -34 -13 0 -31
-12 -41 -25 -18 -25 -18 -25 10 -25 20 0 24 3 14 9 -19 12 -5 31 24 31 25 0
42 -26 22 -34 -7 -2 24 -4 68 -4 44 0 74 2 68 5 -7 2 -13 17 -13 31 l0 27 26
-32 c24 -31 29 -33 87 -32 34 0 56 3 50 6 -8 3 -13 26 -13 63 0 37 5 60 13 63
6 3 -8 5 -33 5 -25 0 -39 -2 -32 -5 8 -3 12 -26 12 -64 0 -65 -12 -75 -45 -39
-16 18 -17 23 -5 46 23 41 4 59 -66 61 -32 1 -53 0 -46 -3 8 -4 12 -27 12 -66
0 -51 -2 -59 -17 -56 -10 2 -31 31 -48 67 -23 48 -33 60 -38 48z m178 -17 c8
-24 -1 -40 -21 -40 -9 0 -14 11 -14 30 0 35 25 42 35 10z"/>
<path d="M9440 4760 c-43 -43 -11 -120 49 -120 42 0 74 30 74 70 0 62 -79 94
-123 50z m84 -23 c12 -34 -3 -81 -28 -85 -24 -5 -36 14 -36 59 0 61 45 80 64
26z"/>
<path d="M8470 4730 c0 -5 5 -10 10 -10 6 0 10 5 10 10 0 6 -4 10 -10 10 -5 0
-10 -4 -10 -10z"/>
<path d="M8470 4650 c0 -5 5 -10 10 -10 6 0 10 5 10 10 0 6 -4 10 -10 10 -5 0
-10 -4 -10 -10z"/>
<path d="M2580 4079 c0 -5 5 -7 10 -4 6 3 10 8 10 11 0 2 -4 4 -10 4 -5 0 -10
-5 -10 -11z"/>
<path d="M6140 4070 c8 -5 22 -10 30 -10 13 0 13 1 0 10 -8 5 -22 10 -30 10
-13 0 -13 -1 0 -10z"/>
<path d="M2368 4043 c7 -3 12 -26 12 -63 0 -37 -5 -60 -12 -63 -7 -3 0 -6 17
-6 22 -1 26 2 17 11 -13 13 -17 88 -4 88 4 -1 25 -24 47 -53 l40 -52 3 68 c3
59 5 67 22 67 17 0 20 -7 20 -49 0 -55 17 -81 55 -81 38 0 55 26 55 81 0 42 3
49 20 49 18 0 20 -7 20 -59 0 -38 -4 -61 -12 -64 -7 -3 1 -5 17 -5 17 0 24 2
18 5 -8 3 -13 24 -12 56 l1 52 28 -60 28 -60 25 55 25 55 1 -47 c1 -28 -4 -48
-11 -52 -7 -2 27 -4 76 -3 69 2 90 5 94 17 4 13 3 13 -11 2 -27 -23 -62 -11
-65 22 -3 27 -2 28 27 24 19 -3 31 0 31 7 0 7 -11 10 -30 7 -27 -4 -30 -2 -30
23 0 25 3 27 35 23 19 -2 35 0 35 4 0 4 -33 8 -73 8 l-73 0 -26 -52 -26 -53
-24 52 -23 53 -50 0 c-30 0 -45 -4 -37 -9 20 -12 12 -101 -10 -115 -13 -8 -23
-8 -35 0 -23 14 -31 103 -11 115 8 5 -11 9 -47 9 -36 0 -55 -4 -47 -9 9 -5 12
-23 10 -51 l-3 -44 -40 52 c-25 34 -46 52 -60 51 -11 0 -14 -3 -7 -6z m492
-63 c0 -53 -2 -60 -20 -60 -18 0 -20 7 -20 60 0 53 2 60 20 60 18 0 20 -7 20
-60z"/>
<path d="M2978 4044 c7 -4 12 -27 12 -64 0 -37 -5 -60 -12 -63 -7 -3 3 -6 22
-6 26 -1 31 2 22 11 -14 14 -16 58 -3 58 5 0 19 -16 31 -35 14 -23 29 -35 43
-35 19 1 20 2 6 10 -9 5 -24 21 -33 36 -17 24 -17 26 1 39 31 24 5 50 -53 52
-27 1 -43 0 -36 -3z m79 -20 c6 -16 -12 -34 -34 -34 -7 0 -13 11 -13 25 0 18
5 25 20 25 11 0 23 -7 27 -16z"/>
<path d="M3140 4030 c-41 -41 -12 -120 45 -120 14 0 34 9 45 20 41 41 12 120
-45 120 -14 0 -34 -9 -45 -20z m84 -22 c13 -37 -3 -82 -30 -86 -44 -6 -69 52
-43 99 16 30 61 22 73 -13z"/>
<path d="M3328 4043 c7 -3 12 -26 12 -63 0 -37 -5 -60 -12 -64 -7 -3 14 -4 46
-3 43 1 61 6 64 17 4 13 3 13 -11 2 -27 -23 -62 -11 -65 22 -3 27 -2 28 27 24
19 -3 31 0 31 7 0 7 -11 10 -30 7 -27 -4 -30 -2 -30 23 0 25 3 27 35 23 19 -2
35 0 35 4 0 4 -26 8 -57 7 -32 0 -52 -3 -45 -6z"/>
<path d="M3468 4035 c30 -21 85 -103 77 -115 -4 -6 18 -10 56 -10 49 0 60 3
51 12 -21 21 -14 46 14 50 35 4 53 31 38 56 -15 23 -157 32 -148 9 3 -8 -2
-20 -11 -27 -14 -12 -18 -11 -26 1 -5 8 -7 20 -4 27 3 8 -7 12 -33 12 -36 0
-36 0 -14 -15z m152 -55 c0 -53 -2 -60 -19 -60 -18 0 -61 47 -61 66 0 15 44
54 62 54 15 0 18 -9 18 -60z m60 45 c10 -12 10 -18 0 -30 -21 -25 -40 -18 -40
15 0 33 19 40 40 15z"/>
<path d="M3720 4041 c0 -5 9 -7 20 -4 18 5 20 0 20 -55 0 -39 -4 -62 -12 -65
-7 -3 3 -6 22 -6 26 -1 31 2 22 11 -7 7 -12 36 -12 66 0 53 1 54 25 50 14 -3
25 -1 25 3 0 5 -25 9 -55 9 -30 0 -55 -4 -55 -9z"/>
<path d="M3848 4043 c7 -3 12 -26 12 -63 0 -37 -5 -60 -12 -64 -7 -3 14 -4 46
-3 43 1 61 6 64 17 4 13 3 13 -11 2 -27 -23 -62 -11 -65 22 -3 27 -2 28 27 24
19 -3 31 0 31 7 0 7 -11 10 -30 7 -27 -4 -30 -2 -30 23 0 25 3 27 35 23 19 -2
35 0 35 4 0 4 -26 8 -57 7 -32 0 -52 -3 -45 -6z"/>
<path d="M4138 4039 c-3 -8 0 -23 8 -34 20 -27 17 -38 -9 -33 -16 3 -28 -4
-44 -29 l-22 -33 27 0 c18 0 23 3 14 8 -21 14 -3 42 28 42 31 0 49 -28 28 -42
-7 -4 23 -8 70 -8 96 0 122 16 122 74 0 46 -29 66 -95 65 -27 0 -44 -3 -37 -6
8 -3 12 -26 12 -64 0 -51 -3 -59 -19 -59 -13 0 -26 19 -48 67 -18 43 -31 62
-35 52z m184 -16 c37 -33 11 -103 -39 -103 -22 0 -23 4 -23 60 0 55 2 60 22
60 12 0 30 -7 40 -17z"/>
<path d="M4378 4043 c7 -3 12 -26 12 -63 0 -37 -5 -60 -12 -63 -7 -3 1 -5 17
-5 17 0 24 2 18 5 -8 3 -13 24 -12 56 l1 52 28 -60 28 -60 25 55 25 55 1 -47
c1 -28 -4 -48 -11 -51 -7 -3 16 -6 51 -6 54 -1 62 1 52 13 -7 8 -11 36 -9 63
3 41 6 48 26 51 21 3 22 0 22 -56 0 -39 -4 -62 -12 -65 -7 -3 0 -6 17 -6 22
-1 26 2 17 11 -13 13 -17 88 -4 88 4 -1 25 -24 47 -53 l40 -52 3 65 c2 36 8
68 15 72 7 5 0 8 -18 8 -20 0 -26 -3 -17 -9 9 -5 12 -23 10 -51 l-3 -44 -40
52 -39 52 -71 0 -71 0 -26 -52 -26 -53 -24 52 c-19 44 -27 52 -48 52 -14 0
-19 -3 -12 -6z m197 -63 c0 -49 -2 -55 -22 -58 -22 -3 -23 0 -23 58 0 58 1 61
23 58 20 -3 22 -9 22 -58z"/>
<path d="M4788 4038 c16 -16 16 -100 0 -116 -9 -9 -6 -12 17 -12 23 0 26 3 17
12 -16 16 -16 100 0 116 9 9 6 12 -17 12 -23 0 -26 -3 -17 -12z"/>
<path d="M4861 4036 c-16 -20 -4 -42 36 -66 19 -11 33 -26 30 -33 -6 -19 -37
-20 -58 -1 -16 15 -19 15 -19 2 0 -14 27 -28 57 -28 19 0 43 29 37 45 -3 8
-21 24 -40 36 -19 11 -34 25 -34 30 0 19 31 21 50 4 19 -17 20 -17 20 1 0 14
-8 20 -34 21 -19 2 -39 -3 -45 -11z"/>
<path d="M4970 4041 c0 -5 9 -7 20 -4 18 5 20 0 20 -55 0 -39 -4 -62 -12 -65
-7 -3 3 -6 22 -6 26 -1 31 2 22 11 -7 7 -12 36 -12 66 0 53 1 54 25 50 14 -3
25 -1 25 3 0 5 -25 9 -55 9 -30 0 -55 -4 -55 -9z"/>
<path d="M5098 4044 c7 -4 12 -27 12 -64 0 -37 -5 -60 -12 -63 -7 -3 3 -6 22
-6 26 -1 31 2 22 11 -14 14 -16 58 -3 58 5 0 19 -16 31 -35 19 -31 26 -35 63
-35 26 0 37 3 29 8 -21 14 -3 42 28 42 31 0 49 -28 28 -42 -8 -5 -1 -8 20 -8
29 0 32 2 19 14 -8 8 -24 40 -37 71 -15 37 -26 52 -31 44 -4 -7 -1 -22 7 -33
20 -29 18 -38 -8 -34 -16 2 -28 -5 -40 -24 -22 -36 -32 -35 -58 3 -22 29 -22
31 -4 44 32 24 6 50 -52 52 -27 1 -43 0 -36 -3z m79 -20 c6 -16 -12 -34 -34
-34 -7 0 -13 11 -13 25 0 18 5 25 20 25 11 0 23 -7 27 -16z"/>
<path d="M5380 4041 c0 -5 9 -7 20 -4 18 5 20 0 20 -55 0 -39 -4 -62 -12 -65
-7 -3 3 -6 22 -6 26 -1 31 2 22 11 -7 7 -12 36 -12 66 0 53 1 54 25 50 14 -3
25 -1 25 3 0 5 -25 9 -55 9 -30 0 -55 -4 -55 -9z"/>
<path d="M5518 4038 c7 -7 12 -33 12 -58 0 -25 -5 -51 -12 -58 -9 -9 -6 -12
17 -12 23 0 26 3 17 12 -7 7 -12 33 -12 58 0 25 5 51 12 58 9 9 6 12 -17 12
-23 0 -26 -3 -17 -12z"/>
<path d="M5577 4042 c7 -4 25 -36 41 -71 16 -35 32 -59 35 -54 4 6 -4 32 -17
59 -17 35 -21 53 -14 62 8 9 2 12 -23 12 -20 0 -29 -4 -22 -8z"/>
<path d="M5686 4035 c4 -8 7 -15 9 -15 1 0 8 7 15 15 10 13 9 15 -8 15 -15 0
-20 -5 -16 -15z"/>
<path d="M5750 4030 c-41 -41 -12 -120 45 -120 14 0 34 9 45 20 41 41 12 120
-45 120 -14 0 -34 -9 -45 -20z m84 -22 c13 -37 -3 -82 -30 -86 -44 -6 -69 52
-43 99 16 30 61 22 73 -13z"/>
<path d="M5998 4039 c-3 -8 0 -23 8 -34 20 -27 17 -38 -9 -33 -16 3 -28 -4
-44 -29 l-22 -33 27 0 c18 0 23 3 14 8 -21 14 -3 42 28 42 31 0 49 -28 28 -42
-8 -4 12 -8 47 -8 46 0 56 3 47 12 -13 13 -17 88 -4 88 4 -1 25 -24 47 -53
l40 -52 3 65 c2 36 8 68 15 72 7 5 0 8 -18 8 -20 0 -26 -3 -17 -9 9 -5 12 -23
10 -51 l-3 -44 -40 52 c-25 34 -46 52 -60 51 -11 0 -14 -3 -7 -6 8 -3 12 -26
12 -64 0 -51 -3 -59 -19 -59 -13 0 -26 19 -48 67 -18 43 -31 62 -35 52z"/>
<path d="M6260 4030 c-41 -41 -12 -120 45 -120 14 0 34 9 45 20 41 41 12 120
-45 120 -14 0 -34 -9 -45 -20z m84 -22 c13 -37 -3 -82 -30 -86 -44 -6 -69 52
-43 99 16 30 61 22 73 -13z"/>
<path d="M5676 3995 c-9 -26 -7 -32 5 -12 6 10 9 21 6 23 -2 3 -7 -2 -11 -11z"/>
<path d="M3482 3940 l-32 -30 25 0 c16 0 24 4 20 11 -4 5 1 19 11 30 25 28 14
23 -24 -11z"/>
<path d="M3990 3920 c0 -5 5 -10 10 -10 6 0 10 5 10 10 0 6 -4 10 -10 10 -5 0
-10 -4 -10 -10z"/>
</g>
</svg>
